<svg width="24" height="24" viewBox="0 0 24 24" fill="none" xmlns="http://www.w3.org/2000/svg">
<path fill-rule="evenodd" clip-rule="evenodd" d="M0.0337524 1.03007L1.56627 0.570312L2.35524 3.20019H20C22.2092 3.20019 24 4.99105 24 7.20019V17.6002H5.00479L0.0337524 1.03007ZM2.83524 4.80019L6.19524 16.0002H22.4V7.20019C22.4 5.87471 21.3255 4.80019 20 4.80019H2.83524ZM8.80001 20.8002C8.35819 20.8002 8.00001 21.1584 8.00001 21.6002C8.00001 22.042 8.35819 22.4002 8.80001 22.4002C9.24184 22.4002 9.60001 22.042 9.60001 21.6002C9.60001 21.1584 9.24184 20.8002 8.80001 20.8002ZM6.40001 21.6002C6.40001 20.2747 7.47453 19.2002 8.80001 19.2002C10.1255 19.2002 11.2 20.2747 11.2 21.6002C11.2 22.9257 10.1255 24.0002 8.80001 24.0002C7.47453 24.0002 6.40001 22.9257 6.40001 21.6002ZM17.6 21.6002C17.6 20.2747 18.6745 19.2002 20 19.2002C21.3255 19.2002 22.4 20.2747 22.4 21.6002C22.4 22.9257 21.3255 24.0002 20 24.0002C18.6745 24.0002 17.6 22.9257 17.6 21.6002ZM20 20.8002C19.5582 20.8002 19.2 21.1584 19.2 21.6002C19.2 22.042 19.5582 22.4002 20 22.4002C20.4418 22.4002 20.8 22.042 20.8 21.6002C20.8 21.1584 20.4418 20.8002 20 20.8002Z" fill="#F38B00"/>
</svg>
