<?xml version="1.0" standalone="no"?>
<!DOCTYPE svg PUBLIC "-//W3C//DTD SVG 20010904//EN"
 "http://www.w3.org/TR/2001/REC-SVG-20010904/DTD/svg10.dtd">
<svg version="1.0" xmlns="http://www.w3.org/2000/svg"
 width="3000.000000pt" height="2000.000000pt" viewBox="0 0 3000.000000 2000.000000"
 preserveAspectRatio="xMidYMid meet">

<g transform="translate(0.000000,2000.000000) scale(0.100000,-0.100000)"
fill="#000000" stroke="none">
<path d="M24378 16051 c-38 -13 -89 -51 -82 -62 3 -5 0 -8 -8 -7 -7 2 -13 -5
-13 -14 0 -9 -4 -20 -9 -25 -5 -5 -6 -2 -1 7 6 11 5 12 -4 4 -23 -21 -51 -122
-50 -186 1 -34 4 -67 7 -73 4 -5 7 -22 8 -36 3 -37 45 -130 55 -123 5 3 6 -1
3 -9 -3 -8 5 -25 18 -37 13 -13 16 -19 8 -14 -8 4 -4 -6 10 -23 14 -17 30 -28
35 -25 6 3 7 1 2 -3 -4 -5 0 -16 8 -25 14 -15 13 -18 -10 -28 -21 -10 -25 -9
-25 4 0 9 -5 12 -12 8 -7 -4 -8 -3 -4 4 6 10 -40 92 -51 92 -2 0 -1 -6 3 -12
5 -9 2 -9 -9 1 -18 15 -23 26 -7 16 6 -3 10 -1 10 5 0 6 -7 13 -15 16 -8 4
-15 11 -15 17 0 18 -71 97 -82 91 -7 -5 -8 -2 -3 5 9 15 -133 163 -147 155 -5
-3 -7 -1 -6 4 2 5 -13 24 -32 41 -45 41 -120 94 -120 85 0 -4 -8 0 -17 9 -10
8 -25 17 -33 19 -8 2 -17 6 -20 10 -21 28 -190 34 -190 7 0 -6 5 -7 12 -3 7 4
8 3 4 -5 -5 -8 -12 -9 -20 -2 -14 12 -70 -34 -60 -50 3 -5 0 -8 -7 -7 -30 7
-67 -170 -39 -187 5 -3 7 -12 3 -20 -3 -8 -1 -15 5 -15 5 0 9 -8 8 -17 0 -10
4 -17 10 -16 7 1 10 -5 8 -15 -5 -21 53 -85 68 -76 7 4 8 2 4 -4 -4 -7 10 -19
37 -31 58 -26 130 -23 181 9 67 41 97 152 51 190 -13 11 -15 7 -15 -26 -1 -22
-7 -50 -14 -64 -9 -16 -11 -31 -5 -41 6 -12 4 -21 -7 -30 -19 -16 -47 -21 -38
-8 3 5 9 7 14 4 14 -8 30 19 20 35 -7 12 -12 12 -22 2 -17 -17 -105 -15 -137
4 -46 27 -73 78 -80 149 l-7 66 38 41 c36 39 39 40 80 34 24 -4 60 -16 81 -27
21 -10 44 -16 50 -13 7 4 9 4 5 -1 -8 -8 142 -122 155 -117 5 1 6 -1 3 -6 -6
-10 114 -118 127 -114 5 1 6 -1 3 -6 -5 -9 59 -77 72 -77 4 0 6 -3 5 -6 -2 -7
47 -55 53 -51 2 1 3 0 2 -3 -2 -2 19 -26 45 -53 41 -41 47 -53 41 -75 -8 -33
3 -80 16 -72 5 3 7 -1 4 -9 -3 -8 4 -24 15 -35 12 -12 19 -21 16 -21 -3 0 8
-27 25 -60 28 -55 35 -62 99 -93 l69 -32 8 70 c4 38 8 77 9 85 2 22 -17 60
-28 60 -6 0 -8 3 -4 6 8 8 -32 84 -45 84 -5 0 -6 5 -3 10 4 6 -10 27 -30 47
-30 30 -38 34 -47 22 -8 -11 -9 -11 -4 3 5 18 -40 128 -57 140 -6 3 -11 17
-12 30 -1 12 -9 50 -18 82 -29 104 -21 199 24 272 10 17 17 33 14 35 -5 6 28
10 82 11 29 0 40 4 36 12 -3 6 -2 7 3 3 5 -5 9 -14 9 -20 0 -7 7 -12 15 -12
11 0 15 -11 14 -41 -1 -23 -4 -49 -7 -58 -4 -10 -3 -14 2 -11 5 3 13 0 17 -6
4 -7 3 -9 -4 -5 -14 8 -44 -22 -36 -36 4 -7 2 -8 -5 -4 -7 4 -26 -5 -46 -23
-19 -16 -30 -33 -25 -36 14 -8 61 6 54 17 -3 5 -13 4 -22 -4 -15 -12 -16 -11
-3 4 9 12 18 15 30 9 26 -15 106 41 96 67 -2 7 -1 11 4 8 24 -15 29 99 7 142
-17 32 -55 69 -76 74 -8 2 -18 7 -21 11 -9 13 -80 17 -111 8z m-814 -219 c3
-5 -1 -9 -9 -9 -8 0 -12 4 -9 9 3 4 7 8 9 8 2 0 6 -4 9 -8z m541 -211 c3 -5 2
-12 -3 -15 -5 -3 -9 1 -9 9 0 17 3 19 12 6z m-454 -98 c13 -16 12 -17 -3 -4
-17 13 -22 21 -14 21 2 0 10 -8 17 -17z"/>
<path d="M25010 15971 c-54 -17 -170 -100 -145 -102 34 -2 132 -40 191 -73 25
-14 51 -23 58 -19 6 3 8 3 4 -1 -4 -5 29 -35 72 -67 70 -53 150 -134 192 -197
19 -28 22 -24 38 49 8 35 10 71 5 95 -5 22 -9 44 -10 49 -4 28 -18 65 -25 65
-4 0 -10 9 -13 21 -3 12 -10 18 -17 14 -6 -3 -10 -3 -9 2 7 29 -84 108 -165
144 -49 21 -140 32 -176 20z m210 -106 c7 -9 8 -15 2 -15 -5 0 -12 7 -16 15
-3 8 -4 15 -2 15 2 0 9 -7 16 -15z"/>
<path d="M24907 15682 c-42 -26 -62 -88 -48 -151 12 -56 38 -104 52 -95 5 3 6
-1 3 -9 -6 -18 21 -41 37 -31 8 4 9 3 5 -5 -5 -7 9 -19 40 -32 79 -35 167 -7
219 69 29 43 32 79 8 99 -10 8 -12 12 -5 8 20 -10 13 7 -22 55 -66 90 -215
138 -289 92z"/>
<path d="M25290 15114 c0 -126 -14 -228 -50 -357 -12 -43 -19 -84 -17 -91 5
-13 94 -40 168 -51 l46 -7 27 109 c38 155 56 284 56 394 l0 97 -32 6 c-17 3
-69 9 -115 13 l-83 6 0 -119z"/>
<path d="M23550 15181 c-117 -62 -172 -201 -140 -356 22 -109 81 -189 170
-235 51 -26 100 -42 100 -32 0 15 -35 97 -43 103 -5 4 -7 11 -4 15 2 5 -1 38
-9 74 -25 119 -14 351 21 443 11 27 -31 22 -95 -12z"/>
<path d="M29409 15153 l-24 -28 26 23 c14 12 29 19 34 15 4 -5 5 -2 1 5 -9 16
-9 16 -37 -15z"/>
<path d="M25657 15033 c-7 -130 -33 -235 -86 -348 l-39 -84 31 6 c117 21 183
91 205 213 12 68 1 184 -21 226 -19 37 -66 94 -76 94 -5 0 -11 -48 -14 -107z"/>
<path d="M23763 15052 c-44 -40 -65 -88 -71 -158 -5 -63 12 -139 29 -129 5 4
6 0 4 -8 -9 -21 31 -64 71 -77 103 -34 216 59 218 178 3 153 -161 279 -251
194z m203 -74 c3 -4 -1 -5 -10 -4 -8 1 -18 5 -22 8 -3 4 1 5 10 4 8 -1 18 -5
22 -8z"/>
<path d="M24566 14914 c-11 -82 -7 -104 31 -172 20 -37 41 -73 47 -81 5 -7 11
-20 12 -28 3 -20 25 -44 35 -37 5 3 6 -1 3 -9 -7 -20 47 -41 85 -32 17 4 40
18 51 32 22 28 29 100 8 87 -7 -4 -8 -3 -4 5 4 6 -6 34 -23 61 -17 28 -31 55
-31 61 0 5 -4 7 -10 4 -6 -3 -7 1 -4 9 3 9 1 16 -5 16 -6 0 -11 9 -11 21 0 11
-4 17 -10 14 -5 -3 -10 -2 -10 3 0 5 -8 12 -17 16 -10 3 -43 22 -73 41 -30 19
-58 35 -61 35 -4 0 -9 -21 -13 -46z"/>
<path d="M23930 14455 c-41 -59 -86 -158 -74 -162 5 -2 27 -14 49 -28 126 -76
194 -110 313 -155 167 -63 187 -68 195 -43 3 10 17 47 30 83 44 118 52 103
-75 145 -132 43 -206 77 -303 139 -38 25 -78 50 -87 56 -14 8 -22 2 -48 -35z
m-26 -161 c3 -8 2 -12 -4 -9 -6 3 -10 10 -10 16 0 14 7 11 14 -7z"/>
<path d="M24807 14269 c-20 -11 -47 -60 -47 -84 0 -9 13 -30 29 -46 38 -38 88
-40 121 -4 13 14 20 25 16 25 -5 0 -3 6 3 14 15 18 -3 67 -32 85 -28 18 -67
22 -90 10z"/>
<path d="M23830 14123 c0 -76 80 -177 178 -227 124 -63 216 -57 299 18 l47 43
-83 12 c-144 21 -286 76 -398 153 l-43 29 0 -28z"/>
<path d="M24742 13941 c-41 -35 -38 -119 5 -135 9 -4 12 -1 7 7 -4 6 2 4 14
-7 26 -22 62 -16 92 16 21 23 27 72 10 83 -6 4 -8 10 -5 15 9 14 -37 40 -71
40 -17 0 -41 -8 -52 -19z"/>
<path d="M24735 13615 c-35 -34 -34 -86 2 -120 31 -28 88 -33 78 -6 -4 11 -3
12 10 1 14 -11 19 -7 16 13 0 4 4 6 11 5 6 -2 16 9 22 24 10 29 -4 71 -34 95
-26 21 -79 15 -105 -12z"/>
<path d="M24806 13305 c-36 -33 -35 -78 3 -116 30 -30 91 -41 91 -17 0 6 3 8
7 5 11 -12 43 46 43 80 0 66 -91 97 -144 48z m114 -1 c0 -8 -19 -13 -24 -6 -3
5 1 9 9 9 8 0 15 -2 15 -3z"/>
<path d="M26984 13306 c-37 -31 -39 -86 -5 -119 13 -12 21 -15 17 -7 -6 12 -5
12 6 -1 18 -22 74 -17 99 8 32 32 30 90 -5 120 -24 20 -31 22 -44 11 -12 -10
-14 -10 -8 0 13 22 -31 13 -60 -12z"/>
<path d="M29308 13313 c6 -2 18 -2 25 0 6 3 1 5 -13 5 -14 0 -19 -2 -12 -5z"/>
<path d="M26679 13297 c-53 -41 -58 -96 -13 -138 45 -43 122 -16 139 48 6 27
-25 87 -51 97 -25 9 -58 6 -75 -7z"/>
<path d="M27301 13276 c-17 -18 -19 -25 -9 -29 9 -4 7 -6 -4 -6 -25 -1 -23
-42 3 -75 17 -21 24 -24 35 -15 12 10 13 9 8 -5 -4 -11 -1 -16 11 -16 10 0 13
4 9 13 -5 8 -2 8 9 -2 14 -11 20 -11 35 0 31 24 42 42 42 74 0 74 -90 113
-139 61z"/>
<path d="M26345 13245 c-51 -50 -21 -134 50 -142 29 -3 43 1 61 18 13 12 21
26 18 30 -3 5 0 9 5 9 22 0 10 52 -18 81 -38 37 -82 39 -116 4z m39 -1 c3 -8
2 -12 -4 -9 -6 3 -10 10 -10 16 0 14 7 11 14 -7z"/>
<path d="M26049 13222 c-1 -4 -1 -11 0 -15 1 -5 -3 -6 -8 -3 -17 11 -41 -25
-41 -60 0 -19 5 -34 11 -34 5 0 8 -4 4 -9 -9 -15 36 -41 70 -41 77 1 113 101
53 150 -21 17 -87 26 -89 12z"/>
<path d="M25721 13177 c-6 -8 -7 -18 -3 -23 4 -5 3 -6 -2 -2 -5 4 -15 3 -23
-3 -15 -13 -18 -69 -2 -69 5 0 8 -4 4 -9 -8 -15 45 -51 75 -51 39 0 80 44 80
86 0 19 -5 34 -12 34 -6 0 -8 3 -5 6 4 4 -3 15 -15 25 -25 22 -81 25 -97 6z"/>
<path d="M27596 13148 c-62 -53 -34 -148 43 -148 81 0 120 76 69 134 -33 38
-78 44 -112 14z"/>
<path d="M25093 13150 c-52 -21 -65 -93 -23 -133 13 -12 20 -17 16 -10 -7 13
19 12 31 -2 4 -4 2 -5 -4 -1 -7 4 -13 2 -13 -3 0 -6 14 -11 31 -11 20 0 28 4
23 12 -5 7 -3 8 5 4 21 -14 51 24 51 64 0 69 -52 104 -117 80z"/>
<path d="M25419 13148 c-27 -9 -59 -55 -59 -86 0 -27 38 -72 55 -65 8 3 12 10
9 15 -4 6 3 5 15 -1 24 -13 29 -23 7 -15 -8 3 -17 1 -21 -5 -10 -17 38 -13 65
6 34 23 40 33 40 69 0 60 -54 101 -111 82z m71 -132 c-4 -4 -16 -4 -26 2 -16
9 -14 10 8 9 15 -1 23 -6 18 -11z"/>
<path d="M27761 12871 c-42 -39 -42 -80 0 -115 39 -33 78 -33 113 -1 35 32 35
82 1 119 -33 35 -74 34 -114 -3z m93 3 c3 -8 2 -12 -4 -9 -6 3 -10 10 -10 16
0 14 7 11 14 -7z"/>
<path d="M28745 12713 c-39 -10 -84 -54 -110 -108 -33 -67 -43 -183 -26 -295
14 -89 68 -255 111 -339 16 -34 28 -61 26 -61 -3 0 -33 39 -67 87 -107 148
-224 255 -344 315 -165 83 -325 33 -325 -101 0 -125 148 -253 360 -310 84 -23
251 -50 320 -52 26 -1 -15 -9 -93 -19 -294 -39 -484 -125 -557 -253 -73 -128
-10 -241 135 -241 155 0 324 116 491 337 43 56 75 95 71 87 -3 -8 -23 -58 -45
-110 -106 -249 -121 -481 -40 -600 38 -55 73 -75 131 -75 93 0 152 69 177 206
22 119 -13 305 -90 479 -22 52 -44 102 -47 110 -3 8 17 -17 46 -56 113 -159
256 -289 377 -346 122 -57 253 -40 295 38 20 38 16 112 -9 160 -30 58 -112
128 -197 169 -109 52 -199 73 -445 104 l-65 9 50 1 c67 2 235 27 310 47 99 27
235 97 288 150 62 61 80 97 81 161 1 59 -20 96 -73 127 -41 24 -142 23 -208
-2 -134 -51 -301 -202 -418 -380 -39 -60 -42 -45 -5 29 47 92 96 251 110 357
28 202 -39 359 -160 375 -19 3 -44 3 -55 0z"/>
<path d="M27753 12552 c-33 -36 -30 -77 8 -113 35 -33 68 -37 105 -13 19 13
22 19 13 30 -10 12 -9 13 5 8 13 -5 16 0 16 25 0 39 -28 84 -47 77 -8 -3 -11
-1 -8 4 3 5 -10 9 -32 8 -25 -1 -44 -9 -60 -26z"/>
<path d="M27670 12279 c-29 -12 -59 -47 -60 -71 0 -26 33 -76 58 -87 34 -16
47 -14 81 15 72 60 7 176 -79 143z"/>
<path d="M27457 12006 c-10 -8 -19 -20 -21 -28 -1 -7 -5 -18 -8 -24 -9 -14 1
-54 14 -54 5 0 7 -4 4 -9 -3 -5 10 -16 30 -26 29 -14 41 -15 65 -5 33 14 67
49 36 37 -11 -4 -16 -3 -12 3 3 6 13 10 21 10 9 0 14 11 14 31 0 17 -4 28 -10
24 -5 -3 -7 0 -4 8 12 31 -73 60 -104 35 -11 -9 -14 -10 -8 0 9 15 6 15 -17
-2z"/>
<path d="M27249 11783 c-1 -5 -1 -11 0 -15 0 -5 -4 -7 -11 -5 -21 4 -39 -48
-28 -78 6 -16 14 -23 22 -19 6 4 8 3 5 -3 -9 -14 19 -37 34 -27 8 4 9 3 5 -4
-12 -19 23 -14 59 8 46 28 53 72 20 116 -22 29 -32 34 -66 34 -21 0 -40 -3
-40 -7z m16 -112 c3 -5 2 -12 -3 -15 -5 -3 -9 1 -9 9 0 17 3 19 12 6z"/>
<path d="M27008 11573 c-23 -6 -51 -66 -44 -91 12 -37 54 -72 85 -72 32 0 49
15 29 24 -7 3 -3 3 10 0 18 -5 25 1 37 30 16 39 5 93 -17 80 -6 -4 -8 -3 -5 3
14 23 -46 39 -95 26z m-17 -100 c13 -16 12 -17 -3 -4 -17 13 -22 21 -14 21 2
0 10 -8 17 -17z"/>
<path d="M26765 11381 c3 -6 0 -9 -8 -5 -21 8 -47 -34 -47 -74 0 -41 33 -73
79 -78 26 -3 32 -1 28 11 -4 8 -1 17 5 21 6 4 8 3 4 -4 -3 -6 -2 -13 3 -16 13
-8 51 42 51 66 0 25 -30 69 -41 62 -5 -3 -8 0 -7 8 2 9 -10 14 -36 16 -25 2
-36 0 -31 -7z"/>
<path d="M26485 11208 c-52 -30 -60 -89 -19 -133 22 -24 31 -27 67 -22 78 11
103 83 48 138 -31 30 -63 36 -96 17z"/>
<path d="M26224 11049 c-12 -4 -31 -20 -43 -36 -28 -35 -22 -78 15 -110 33
-30 65 -29 103 3 25 21 31 32 29 65 -2 58 -54 97 -104 78z"/>
<path d="M25916 10877 c-34 -31 -42 -71 -22 -102 23 -35 69 -57 98 -46 29 11
62 47 54 60 -3 5 0 11 6 14 10 3 10 7 1 18 -11 14 -13 19 -13 39 0 13 -54 40
-79 40 -11 0 -31 -10 -45 -23z"/>
<path d="M25643 10726 c-3 -5 -1 -6 5 -2 6 3 13 2 17 -3 3 -6 -5 -8 -19 -5
-25 4 -42 -18 -29 -38 3 -7 1 -8 -5 -4 -8 5 -12 -2 -12 -19 0 -33 50 -85 82
-85 23 0 66 24 80 44 15 21 8 67 -14 97 -19 25 -28 29 -61 27 -21 -1 -41 -6
-44 -12z"/>
<path d="M25350 10560 c-16 -18 -30 -41 -30 -52 0 -27 19 -60 30 -53 6 3 7 -1
4 -9 -4 -10 5 -16 28 -22 43 -10 58 -7 86 19 49 46 17 128 -56 143 -27 6 -36
2 -62 -26z"/>
<path d="M25081 10404 c-25 -20 -31 -34 -31 -64 0 -30 6 -44 31 -64 17 -14 38
-26 47 -26 22 0 74 35 65 43 -3 4 -1 7 6 7 7 0 10 4 7 9 -4 5 -1 11 6 13 14 5
3 51 -18 72 -9 9 -20 13 -26 10 -6 -4 -8 -2 -5 3 7 11 -13 23 -38 23 -7 0 -27
-12 -44 -26z m16 -96 c-3 -8 -6 -5 -6 6 -1 11 2 17 5 13 3 -3 4 -12 1 -19z"/>
<path d="M24809 10231 c-26 -29 -34 -45 -18 -36 12 7 12 6 1 -7 -29 -36 16
-108 68 -108 30 0 90 50 90 76 0 8 -4 13 -9 9 -5 -3 -13 -1 -16 5 -4 6 -3 9 2
8 4 -2 9 0 11 5 16 50 -90 90 -129 48z"/>
<path d="M24563 10054 c-18 -9 -31 -20 -28 -24 3 -5 0 -10 -7 -12 -6 -2 -11
-19 -11 -37 0 -78 101 -115 149 -55 26 32 31 49 12 38 -10 -6 -10 -4 0 7 15
16 16 33 0 23 -6 -4 -8 -3 -5 4 8 12 -2 42 -13 42 -5 0 -7 -9 -5 -20 2 -11 0
-18 -5 -15 -5 3 -7 14 -5 25 2 12 -4 24 -15 30 -24 13 -29 13 -67 -6z"/>
<path d="M24296 9834 c-30 -30 -34 -77 -11 -108 8 -11 15 -16 15 -12 0 4 8 0
17 -9 12 -12 26 -15 52 -11 43 7 71 37 71 77 0 32 -27 82 -40 74 -5 -3 -11 -1
-15 5 -12 20 -62 10 -89 -16z"/>
<path d="M24091 9626 c-38 -21 -70 -96 -41 -96 6 0 9 -3 9 -7 -6 -34 44 -68
85 -57 33 8 69 48 69 77 0 32 -31 77 -60 88 -30 11 -33 11 -62 -5z"/>
<path d="M23871 9364 c-24 -20 -31 -34 -31 -60 0 -72 90 -109 143 -60 36 34
35 73 -2 114 -37 39 -69 41 -110 6z"/>
<path d="M23701 9107 c-6 -8 -8 -17 -4 -21 4 -4 -1 -4 -12 0 -15 6 -17 4 -12
-10 4 -10 3 -15 -3 -11 -14 9 -12 -19 3 -34 10 -11 10 -13 0 -7 -20 11 -15 -8
8 -38 12 -16 27 -25 36 -22 8 3 11 1 8 -4 -3 -6 4 -10 15 -10 24 0 80 30 80
42 0 4 0 11 0 16 0 4 -4 7 -9 7 -5 0 -13 3 -17 7 -3 4 3 6 15 3 30 -6 28 39
-4 70 -27 28 -85 34 -104 12z"/>
<path d="M23539 8811 c-62 -62 -12 -153 75 -137 100 19 78 166 -25 166 -11 0
-34 -13 -50 -29z m78 2 c0 -9 -4 -10 -14 -2 -7 6 -13 12 -13 14 0 1 6 2 13 2
8 0 14 -6 14 -14z"/>
<path d="M3905 8650 c-123 -21 -265 -61 -394 -109 -93 -36 -96 -38 -93 -67 11
-104 74 -220 148 -274 43 -31 49 -32 69 -19 25 15 182 131 202 149 7 6 61 42
120 79 151 97 143 87 143 181 l0 80 -47 -1 c-27 -1 -93 -9 -148 -19z"/>
<path d="M4425 8605 c-9 -79 -30 -170 -55 -245 -11 -34 -17 -66 -14 -73 4 -7
3 -9 -1 -4 -5 4 -26 -25 -47 -65 -22 -40 -52 -88 -68 -108 -23 -29 -27 -40
-17 -50 9 -10 9 -11 -1 -5 -17 9 -105 -74 -98 -92 3 -8 -1 -10 -11 -6 -13 5
-15 2 -9 -13 6 -15 4 -16 -5 -7 -9 9 -22 4 -56 -22 -50 -38 -178 -94 -232
-102 -20 -2 -43 -7 -51 -10 -22 -8 -108 -4 -170 9 -76 15 -71 13 -110 31 -19
8 -38 13 -42 11 -5 -3 -8 -1 -8 5 0 14 -55 42 -65 33 -3 -4 -5 -2 -3 4 2 5
-24 37 -58 70 -90 88 -158 198 -198 321 l-17 52 -82 -51 c-426 -264 -879 -694
-1243 -1178 -273 -363 -531 -810 -697 -1205 -58 -139 -109 -275 -103 -275 2 0
35 13 72 29 149 63 331 69 459 14 138 -58 239 -155 309 -298 208 -424 -3
-1039 -429 -1250 -127 -63 -196 -78 -325 -73 -123 6 -187 27 -286 93 l-65 44
6 -87 c8 -113 24 -268 31 -309 5 -26 3 -33 -9 -33 -9 0 -18 4 -21 9 -8 13
-168 104 -183 104 -7 0 -10 3 -8 7 5 8 -205 114 -212 107 -11 -11 -33 -200
-44 -367 -45 -727 164 -1432 578 -1945 166 -206 409 -417 658 -570 145 -90
416 -221 588 -285 191 -70 598 -183 612 -169 9 10 -57 305 -110 489 -51 179
-134 420 -181 528 -13 28 -20 52 -17 52 3 0 65 -21 137 -46 347 -121 668 -175
1035 -175 179 0 243 5 433 32 110 15 116 19 91 55 -58 82 -120 245 -144 374
-15 84 -15 277 1 360 13 73 60 222 84 268 11 21 12 33 5 37 -7 5 -6 11 2 21 6
7 15 12 19 9 5 -3 24 16 43 42 20 27 49 61 66 77 25 24 29 32 19 45 -10 13
-10 14 1 5 10 -9 27 -2 74 30 127 87 266 119 408 96 41 -7 82 -13 91 -13 9 -1
14 -5 12 -9 -3 -4 2 -8 10 -8 25 0 28 -1 84 -37 29 -19 57 -31 62 -28 5 3 12
0 16 -6 5 -8 2 -10 -7 -5 -8 4 -5 1 5 -6 91 -62 224 -245 276 -380 42 -110 62
-198 45 -198 -12 0 -129 -130 -218 -240 l-28 -35 7 35 c12 59 7 172 -10 238
-24 93 -62 161 -130 227 -90 88 -103 92 -244 71 -65 -10 -128 -20 -141 -23
-33 -6 -86 -66 -117 -131 -106 -225 -4 -532 211 -634 33 -15 68 -28 78 -28 18
0 172 73 235 112 17 11 32 18 32 15 0 -2 -22 -42 -48 -88 -138 -239 -235 -519
-268 -773 -8 -60 -13 -110 -11 -112 2 -2 78 19 170 46 520 155 987 384 1372
673 l81 60 -29 56 c-37 73 -34 137 9 183 58 61 138 74 244 38 l59 -20 59 63
c235 245 446 573 561 872 41 108 79 230 87 284 6 39 5 43 -12 38 -10 -3 -57
-13 -104 -22 -449 -87 -940 -265 -1265 -458 -33 -19 -61 -34 -63 -32 -2 2 28
56 67 120 66 109 153 279 200 387 l19 46 -46 7 c-74 11 -198 60 -262 104 -32
22 -61 37 -65 33 -4 -4 -5 -2 -4 3 2 6 -16 30 -40 55 -24 25 -56 62 -71 82
-15 21 -31 34 -35 30 -3 -4 -5 -2 -3 3 5 18 -24 75 -36 68 -6 -3 -8 -3 -4 1 3
4 -8 37 -24 74 -71 156 -106 410 -80 576 10 62 9 72 -7 95 -52 73 -128 260
-165 407 -106 414 -87 901 47 1196 l34 74 -97 -4 c-69 -3 -114 1 -161 13 -35
9 -68 18 -74 19 -5 1 -39 17 -75 36 -35 19 -69 34 -75 32 -5 -2 -7 0 -3 4 10
9 -52 55 -64 48 -5 -3 -7 -2 -6 3 2 5 -19 31 -45 58 -283 295 -365 780 -190
1130 40 80 85 140 157 207 28 26 45 47 38 48 -7 0 -10 5 -6 11 5 8 8 8 14 0 5
-8 29 -1 81 24 41 19 91 38 112 42 20 3 39 8 41 12 4 5 194 -4 241 -12 32 -6
176 -75 212 -103 18 -14 38 -22 43 -19 6 4 9 2 8 -3 -4 -14 43 -53 55 -45 5 3
7 2 4 -4 -8 -13 50 -76 63 -68 6 4 7 -1 3 -11 -5 -13 -3 -15 7 -9 7 5 11 4 7
-1 -7 -13 68 -126 78 -116 5 4 5 2 1 -5 -3 -6 3 -27 14 -46 11 -19 34 -72 51
-118 16 -46 32 -91 36 -99 7 -17 6 -13 23 -141 22 -169 -1 -357 -59 -492 -12
-27 -18 -54 -14 -60 3 -7 2 -9 -2 -4 -5 4 -20 -12 -34 -35 -31 -53 -31 -50 -2
-55 86 -13 222 -123 298 -242 152 -235 242 -592 244 -964 l1 -162 83 -41 83
-41 44 41 c155 142 295 394 395 711 36 117 57 171 49 125 -3 -14 -12 -77 -20
-140 -47 -369 -19 -658 85 -868 109 -223 308 -306 447 -187 91 79 123 228 87
406 -45 226 -212 501 -458 757 -33 34 -58 64 -56 66 2 2 38 -23 79 -56 164
-132 370 -257 524 -318 246 -97 497 -95 614 6 59 50 82 99 82 174 0 152 -137
277 -369 337 -207 53 -528 39 -833 -38 -106 -27 -116 -23 -28 10 519 195 864
497 878 769 5 94 -11 150 -56 196 -56 59 -86 70 -177 70 -64 -1 -92 -6 -137
-27 -245 -110 -441 -397 -590 -862 -26 -81 -37 -105 -33 -75 2 25 12 106 21
180 31 256 8 552 -57 725 -52 139 -139 250 -231 293 -62 29 -153 30 -206 3
-110 -57 -166 -201 -143 -371 34 -252 205 -552 464 -817 40 -40 68 -73 63 -73
-5 0 -39 24 -75 54 -104 85 -308 218 -402 261 l-86 40 -46 180 c-25 99 -51
194 -58 210 -7 17 -12 33 -11 37 7 34 -199 576 -235 619 -7 9 -10 19 -6 22 3
4 1 7 -5 7 -7 0 -11 3 -10 8 4 12 -24 72 -33 72 -5 0 -8 3 -7 8 5 15 -21 72
-33 72 -7 0 -10 3 -6 6 7 8 -60 134 -80 151 -8 6 -13 14 -12 18 1 4 -8 24 -21
46 -19 35 -24 38 -38 27 -15 -12 -16 -11 -4 4 12 15 9 24 -19 65 -18 26 -39
52 -46 56 -7 5 -11 12 -9 16 3 4 -8 22 -24 40 -17 18 -30 35 -30 39 -1 4 -17
25 -36 47 -20 22 -33 33 -28 25 4 -9 3 -12 -2 -7 -5 5 -9 12 -9 17 0 18 -47
70 -57 64 -6 -4 -8 -3 -5 3 8 13 -27 46 -38 36 -4 -5 -5 -2 -1 5 10 16 -109
136 -125 126 -7 -4 -9 -3 -5 4 7 11 -79 89 -95 84 -5 -1 -8 2 -7 7 3 10 -76
71 -92 71 -5 0 -10 4 -10 8 0 5 -12 15 -27 23 -16 8 -30 17 -33 20 -16 18
-101 59 -111 53 -7 -4 -9 -3 -6 3 15 24 -349 154 -388 139 -8 -3 -16 0 -18 7
-2 7 -8 -15 -12 -48z m649 -273 c3 -5 -1 -9 -9 -9 -8 0 -12 4 -9 9 3 4 7 8 9
8 2 0 6 -4 9 -8z m221 -162 c10 -11 16 -20 13 -20 -3 0 -13 9 -23 20 -10 11
-16 20 -13 20 3 0 13 -9 23 -20z m-2350 -863 c11 -2 42 -13 69 -25 26 -12 53
-19 60 -15 6 3 8 2 4 -2 -10 -10 63 -56 76 -48 5 4 6 1 2 -5 -4 -6 7 -21 24
-34 70 -51 162 -206 192 -320 6 -27 14 -48 17 -48 4 0 8 -73 9 -163 4 -173 -9
-261 -57 -387 -11 -29 -18 -57 -15 -62 3 -4 1 -8 -5 -8 -5 0 -13 -10 -17 -22
-4 -13 -18 -40 -31 -61 -13 -21 -21 -43 -17 -50 4 -7 4 -9 -1 -5 -8 8 -81 -91
-77 -104 1 -5 -1 -7 -6 -6 -4 2 -32 -22 -63 -52 -55 -54 -118 -110 -125 -110
-9 0 -73 -48 -69 -52 3 -3 -1 -5 -8 -5 -6 0 -41 -11 -77 -25 -144 -57 -307
-62 -432 -15 -36 14 -70 22 -74 19 -4 -4 -4 -2 -1 4 4 6 -5 16 -19 22 -88 41
-161 125 -227 262 -121 252 -111 542 28 825 130 267 354 451 599 495 45 8 188
6 241 -3z m3874 -1532 c-3 -2 -55 -24 -117 -49 -62 -25 -163 -71 -224 -103
-62 -32 -115 -59 -118 -60 -3 -2 -6 26 -8 62 -4 73 -10 68 103 80 65 7 335 62
343 70 3 3 10 5 15 5 6 0 8 -2 6 -5z m-2821 -490 c76 -18 160 -60 227 -114 27
-22 53 -37 59 -34 5 4 6 1 1 -6 -10 -18 56 -86 67 -68 5 8 7 5 6 -8 -2 -20 76
-188 84 -180 2 2 4 -4 5 -13 0 -9 11 -53 23 -97 33 -120 38 -326 11 -464 -11
-57 -18 -108 -14 -114 4 -6 1 -7 -7 -2 -8 5 -11 3 -8 -6 3 -8 -2 -20 -9 -28
-8 -8 -12 -22 -10 -33 3 -10 1 -16 -4 -12 -5 3 -10 0 -10 -5 -2 -18 -5 -25
-25 -66 -10 -22 -25 -46 -32 -54 -7 -7 -11 -20 -8 -28 3 -8 2 -12 -3 -9 -5 3
-17 -7 -26 -22 -37 -57 -119 -143 -178 -188 -120 -91 -240 -134 -376 -134
-189 0 -336 74 -465 234 -51 62 -114 186 -137 266 -7 25 -15 47 -19 50 -6 6
-8 30 -16 195 -5 98 -2 153 10 224 17 97 58 229 83 268 8 12 11 28 7 34 -4 8
-3 9 4 5 7 -4 12 -3 12 3 0 15 70 120 117 176 23 28 72 73 108 100 37 28 74
57 83 65 10 8 22 15 27 16 21 2 55 17 55 23 0 4 6 8 13 8 6 1 37 8 67 16 71
20 198 21 278 2z m-1739 -1800 c194 -46 343 -185 408 -380 24 -71 27 -95 27
-220 0 -116 -3 -153 -22 -220 -63 -219 -203 -424 -381 -556 l-65 -47 -71 130
-72 130 69 70 c152 152 201 375 119 542 -56 115 -155 173 -278 164 -94 -7
-172 -46 -252 -127 l-64 -64 -20 24 c-57 72 -132 147 -140 142 -6 -3 -7 -2 -4
4 4 6 -10 29 -30 52 l-36 42 54 55 c118 121 281 215 434 253 98 24 236 26 324
6z"/>
<path d="M23427 8519 c-23 -17 -26 -26 -23 -65 4 -54 20 -73 69 -81 32 -5 40
-2 67 27 38 41 38 73 1 111 -35 35 -77 38 -114 8z"/>
<path d="M23364 8217 c-32 -18 -44 -41 -40 -80 4 -49 23 -67 74 -74 35 -5 44
-2 66 22 37 40 35 87 -4 115 -36 25 -70 31 -96 17z"/>
<path d="M23316 7889 c-25 -20 -26 -22 -9 -35 17 -12 16 -13 -4 -7 -20 4 -23
1 -23 -22 0 -61 94 -109 135 -69 51 52 54 98 8 134 -33 26 -73 25 -107 -1z"/>
<path d="M23340 7579 c0 -5 -4 -8 -10 -4 -5 3 -16 -5 -24 -17 -47 -73 33 -166
108 -126 60 32 62 118 5 149 -17 9 -20 8 -14 -3 6 -10 5 -11 -6 0 -16 15 -59
16 -59 1z"/>
<path d="M23382 7259 c-57 -37 -56 -98 2 -137 24 -17 42 -22 58 -17 92 28 90
148 -2 169 -16 4 -36 -1 -58 -15z"/>
<path d="M29465 7034 c-91 -55 -275 -176 -275 -181 0 -2 5 -1 12 3 7 4 8 3 4
-5 -4 -6 -12 -9 -17 -6 -13 8 -90 -56 -82 -68 3 -6 1 -7 -5 -3 -32 19 -402
-336 -571 -549 -131 -165 -244 -332 -235 -348 4 -7 4 -9 -1 -5 -8 7 -43 -33
-36 -41 1 -2 -1 -7 -6 -10 -32 -21 -243 -441 -323 -641 -104 -262 -210 -639
-249 -890 -27 -172 -34 -240 -27 -240 4 0 87 26 184 59 197 65 371 137 509
211 555 296 917 695 1116 1230 119 321 171 757 133 1120 -16 154 -51 363 -65
387 -5 9 -23 3 -66 -23z"/>
<path d="M21764 7013 c1 -16 -4 -40 -10 -54 -8 -15 -9 -31 -4 -39 10 -17 3
-33 -12 -24 -5 3 -22 -5 -36 -19 -15 -13 -40 -29 -57 -34 -39 -13 -162 -7
-261 12 -98 19 -168 19 -183 2 -6 -8 -8 -17 -4 -20 3 -4 1 -7 -6 -7 -8 0 -10
7 -6 20 5 15 3 18 -9 14 -9 -3 -16 -10 -16 -16 0 -5 -6 -6 -12 -3 -7 4 0 -4
15 -18 l28 -24 -30 2 c-38 2 -49 -10 -46 -52 1 -18 -2 -30 -7 -27 -5 3 -6 14
-3 25 5 14 2 17 -9 13 -8 -3 -12 -13 -9 -22 4 -15 3 -15 -6 -2 -8 11 -7 18 6
27 9 7 13 16 9 20 -11 11 -38 -29 -31 -45 3 -8 0 -21 -7 -29 -10 -12 -9 -18 5
-28 9 -7 17 -16 17 -20 0 -4 -7 -2 -15 5 -13 10 -14 5 -12 -44 2 -31 0 -56 -4
-56 -4 0 -10 -15 -13 -33 -10 -53 -53 -87 -117 -93 -30 -2 -69 -7 -87 -9 -18
-2 -30 0 -27 4 2 5 -17 12 -43 16 -26 4 -81 16 -122 27 -81 22 -202 27 -224 9
-7 -6 -17 -7 -21 -3 -5 4 -5 -1 -2 -10 3 -10 1 -20 -5 -24 -6 -4 -8 -3 -4 4 3
6 2 13 -4 17 -5 3 -10 2 -10 -3 0 -6 -11 -13 -25 -16 -14 -4 -25 -11 -25 -17
0 -6 7 -6 21 1 11 7 23 9 26 7 2 -3 -5 -8 -16 -12 -12 -3 -19 -10 -17 -14 3
-4 -1 -8 -9 -8 -8 0 -12 4 -9 9 3 4 2 8 -3 8 -16 -1 -82 -68 -148 -150 -152
-190 -221 -244 -315 -245 -70 0 -116 31 -153 104 l-25 50 -42 -91 c-23 -50
-60 -138 -81 -195 -40 -107 -119 -358 -119 -380 0 -8 16 -10 54 -6 105 11 203
-26 386 -144 67 -43 123 -76 125 -73 1 3 12 -3 23 -13 12 -11 26 -16 33 -11 7
4 10 3 5 -4 -7 -11 30 -28 53 -23 7 1 10 -2 7 -8 -5 -8 11 -17 44 -26 3 -1 14
-6 25 -11 26 -12 164 -12 190 0 11 5 26 10 34 12 24 5 66 41 63 55 -2 9 2 9
14 -2 15 -12 17 -12 9 0 -6 11 -4 13 8 8 19 -7 87 66 87 95 0 10 4 18 10 18 5
0 6 7 3 17 -4 11 -3 14 5 9 7 -4 12 -3 12 3 0 19 -19 21 -29 4 -6 -10 -11 -13
-11 -6 0 6 4 14 9 17 4 3 7 18 5 33 -2 17 -1 20 2 8 16 -54 34 -35 53 54 9 43
9 56 -1 63 -10 6 -9 8 3 8 11 0 20 18 30 58 7 31 13 63 12 69 0 7 4 10 10 6 6
-4 8 0 4 10 -3 10 -2 17 3 17 7 0 26 40 22 47 -1 1 11 16 27 33 17 19 27 40
26 54 -2 14 3 23 11 23 11 0 11 -3 1 -16 -15 -20 83 56 101 78 6 8 12 12 12 8
0 -3 17 1 38 10 20 8 48 19 61 25 23 8 23 9 5 23 -18 13 -18 14 4 8 12 -3 22
-9 22 -14 0 -15 48 -10 64 7 9 8 16 11 16 6 0 -6 15 -9 33 -7 17 1 37 -2 43
-6 6 -5 29 -7 52 -5 23 2 39 -1 36 -5 -3 -5 10 -10 28 -11 41 -1 44 -2 91 -16
21 -6 46 -8 54 -5 11 4 14 2 9 -5 -4 -6 1 -11 11 -10 10 0 32 -5 50 -10 17 -6
34 -8 37 -5 3 3 12 1 20 -6 7 -6 27 -14 42 -16 35 -5 46 -8 103 -24 23 -7 49
-10 57 -7 7 3 16 1 19 -4 7 -11 77 -13 124 -4 19 4 31 13 32 23 0 10 3 11 6 4
3 -9 16 -4 44 14 41 27 49 40 24 40 -8 0 -15 -6 -15 -13 0 -7 -4 -16 -10 -19
-6 -4 -7 2 -1 17 5 13 16 23 27 23 21 -1 50 23 40 32 -3 3 2 12 12 20 15 11
13 12 -13 2 -44 -16 -194 -12 -245 6 -24 9 -50 13 -57 11 -7 -3 -12 0 -10 7 1
7 -6 11 -17 9 -12 -2 -16 1 -11 9 5 7 3 10 -6 7 -8 -3 -20 2 -26 11 -12 14
-14 14 -25 1 -16 -19 -58 -22 -51 -3 3 7 -1 13 -8 13 -7 0 -9 3 -6 6 4 4 13 1
22 -6 17 -14 50 -6 40 11 -4 6 -13 8 -21 5 -7 -3 -16 0 -20 6 -5 7 -2 8 7 3
12 -8 12 -6 0 8 -7 9 -18 14 -25 10 -6 -3 -8 -3 -4 2 4 4 -7 25 -25 45 -42 48
-61 74 -64 86 -9 37 -32 88 -44 95 -9 5 -10 9 -2 9 7 0 13 25 16 68 6 87 7 93
41 133 33 39 106 90 118 83 4 -3 8 -1 8 5 0 6 45 9 113 9 61 -1 121 2 132 6
19 7 19 7 1 -5 -17 -11 -15 -13 29 -30 26 -10 53 -15 59 -12 6 3 8 3 4 -2 -11
-11 29 -38 44 -29 7 4 8 3 4 -5 -4 -6 0 -14 10 -18 16 -6 39 15 65 60 9 16 8
17 -10 5 -11 -6 -17 -16 -14 -22 3 -5 1 -6 -5 -2 -6 4 -9 13 -6 21 4 8 10 13
14 10 5 -3 11 -1 15 4 3 6 12 8 20 5 8 -3 34 8 59 26 26 17 46 28 46 25 0 -3
16 1 35 9 20 9 38 15 40 16 3 0 15 0 28 0 20 1 20 2 4 11 -9 5 -21 8 -25 5 -4
-2 -14 0 -22 6 -12 8 -12 9 3 4 26 -8 20 1 -10 16 -16 8 -60 31 -100 52 -40
21 -78 34 -84 30 -7 -4 -9 -3 -6 3 6 9 -14 24 -33 24 -3 1 -10 5 -15 9 -6 5
-17 5 -24 1 -11 -7 -11 -10 0 -17 20 -12 39 -14 39 -3 0 6 5 7 11 3 16 -9 -9
-23 -34 -18 -20 3 -46 31 -47 49 0 6 4 4 9 -4 6 -9 11 -10 15 -2 4 6 2 12 -3
12 -17 2 -23 4 -71 26 -39 17 -84 35 -100 38 -3 1 -22 9 -44 18 -21 9 -39 17
-41 17 -1 0 -1 -12 -1 -27z m116 -49 c0 -2 -9 0 -20 6 -11 6 -20 13 -20 16 0
2 9 0 20 -6 11 -6 20 -13 20 -16z m35 6 c3 -6 -1 -7 -9 -4 -18 7 -21 14 -7 14
6 0 13 -4 16 -10z m40 -48 c-3 -3 -11 0 -18 7 -9 10 -8 11 6 5 10 -3 15 -9 12
-12z m38 -19 c-7 -2 -21 -2 -30 0 -10 3 -4 5 12 5 17 0 24 -2 18 -5z m-263
-64 c-7 -11 -14 -18 -17 -15 -3 3 0 12 7 21 18 21 23 19 10 -6z m-340 -9 c-13
-8 -12 -10 4 -10 11 0 17 -2 14 -5 -3 -4 -18 -3 -34 1 -25 6 -26 8 -9 15 28
11 43 10 25 -1z m295 1 c17 -7 16 -9 -9 -15 -16 -4 -33 -3 -39 3 -7 7 -2 8 14
5 19 -5 21 -4 9 5 -17 12 -4 13 25 2z m71 -11 c0 -12 -4 -16 -9 -11 -5 5 -6
14 -3 20 10 15 12 14 12 -9z m-286 0 c0 -5 -2 -10 -4 -10 -3 0 -8 5 -11 10 -3
6 -1 10 4 10 6 0 11 -4 11 -10z m780 -10 c8 -5 11 -10 5 -10 -5 0 -17 5 -25
10 -8 5 -10 10 -5 10 6 0 17 -5 25 -10z m-943 -6 c-3 -3 -12 -4 -19 -1 -8 3
-5 6 6 6 11 1 17 -2 13 -5z m968 -32 c-3 -3 -11 0 -18 7 -9 10 -8 11 6 5 10
-3 15 -9 12 -12z m-55 -27 c-7 -9 -15 -13 -17 -11 -7 7 7 26 19 26 6 0 6 -6
-2 -15z m-649 -36 c-14 -5 -28 -6 -32 -2 -4 4 6 9 24 10 30 1 31 1 8 -8z m43
0 c-4 -8 1 -9 17 -4 18 5 15 1 -10 -15 -18 -11 -36 -19 -39 -16 -3 4 0 6 6 6
7 0 11 3 11 8 -3 18 2 32 12 32 5 0 7 -5 3 -11z m93 5 c-3 -3 -12 -4 -19 -1
-8 3 -5 6 6 6 11 1 17 -2 13 -5z m440 -9 c0 -8 -4 -12 -9 -9 -5 3 -6 10 -3 15
9 13 12 11 12 -6z m-602 -35 c-3 -5 -12 -10 -18 -10 -7 0 -6 4 3 10 19 12 23
12 15 0z m-15 -50 c-6 -11 -15 -20 -20 -20 -6 0 -2 9 7 20 10 11 19 20 21 20
1 0 -2 -9 -8 -20z m-53 -192 c-3 -8 -6 -5 -6 6 -1 11 2 17 5 13 3 -3 4 -12 1
-19z m-1080 -3 c0 -8 -4 -12 -9 -9 -4 3 -8 0 -8 -5 0 -6 -8 -11 -17 -11 -15 0
-13 4 7 20 14 11 25 20 26 20 0 0 1 -7 1 -15z m290 9 c-3 -3 -12 -4 -19 -1 -8
3 -5 6 6 6 11 1 17 -2 13 -5z m198 -14 c3 -6 -1 -7 -9 -4 -18 7 -21 14 -7 14
6 0 13 -4 16 -10z m48 3 c-7 -2 -19 -2 -25 0 -7 3 -2 5 12 5 14 0 19 -2 13 -5z
m-627 -43 c0 -9 -6 -17 -12 -17 -7 0 -9 7 -6 16 5 14 4 14 -14 1 -17 -14 -18
-13 -7 1 17 21 39 20 39 -1z m1147 -15 c-3 -9 -8 -14 -10 -11 -3 3 -2 9 2 15
9 16 15 13 8 -4z m35 -10 c-3 -3 -9 2 -12 12 -6 14 -5 15 5 6 7 -7 10 -15 7
-18z m-1168 -11 c0 -8 -19 -13 -24 -6 -3 5 1 9 9 9 8 0 15 -2 15 -3z m-66 -12
c3 -5 -1 -9 -9 -9 -8 0 -12 4 -9 9 3 4 7 8 9 8 2 0 6 -4 9 -8z m-18 -57 c-1
-22 -2 -23 -13 -9 -12 17 -9 34 7 34 4 0 7 -11 6 -25z m-27 -42 c-6 -7 -8 -17
-4 -22 3 -6 1 -19 -5 -28 -9 -15 -10 -14 -4 6 4 17 3 21 -6 16 -9 -5 -8 -1 1
16 7 13 12 31 11 39 -3 13 -2 13 7 0 7 -9 6 -19 0 -27z m1352 -20 c13 -16 12
-17 -3 -4 -17 13 -22 21 -14 21 2 0 10 -8 17 -17z m-356 -153 c3 -6 -1 -7 -9
-4 -18 7 -21 14 -7 14 6 0 13 -4 16 -10z m155 2 c0 -4 -16 -6 -35 -4 -19 2
-35 6 -35 8 0 2 16 4 35 4 19 0 35 -4 35 -8z m-370 -32 c-8 -5 -19 -10 -25
-10 -5 0 -3 5 5 10 8 5 20 10 25 10 6 0 3 -5 -5 -10z m627 -41 c-9 -6 -14 -15
-11 -21 4 -7 2 -8 -5 -4 -14 9 3 36 23 36 6 0 3 -5 -7 -11z m-804 -14 c-3 -9
-8 -14 -10 -11 -3 3 -2 9 2 15 9 16 15 13 8 -4z m75 0 c-2 -1 -12 -7 -24 -13
-15 -8 -21 -8 -21 1 0 7 11 13 24 13 14 1 23 1 21 -1z m767 -5 c3 -6 -1 -7 -9
-4 -18 7 -21 14 -7 14 6 0 13 -4 16 -10z m-889 -62 c5 -7 2 -8 -5 -4 -7 5 -17
1 -25 -9 -11 -15 -12 -15 -12 2 0 21 31 29 42 11z m-10 -40 c-1 -23 -26 -39
-26 -16 0 11 18 38 26 38 1 0 1 -10 0 -22z m-66 -112 c0 -3 -4 -8 -10 -11 -5
-3 -10 -1 -10 4 0 6 5 11 10 11 6 0 10 -2 10 -4z m-636 -61 c-4 -8 -1 -15 7
-15 7 0 10 -2 7 -5 -3 -3 -12 -3 -21 1 -16 6 -13 34 4 34 4 0 6 -7 3 -15z
m-62 -347 c-6 -6 -12 -6 -17 3 -5 8 -4 10 3 5 7 -4 12 0 13 11 0 12 2 13 6 5
3 -8 1 -18 -5 -24z m588 18 c0 -3 -4 -8 -10 -11 -5 -3 -10 -1 -10 4 0 6 5 11
10 11 6 0 10 -2 10 -4z m-54 -26 c9 0 12 5 8 12 -4 7 -3 8 5 4 17 -11 1 -28
-21 -23 -15 4 -18 2 -13 -11 4 -12 3 -14 -5 -6 -6 6 -7 19 -3 29 4 11 8 14 11
7 2 -7 10 -12 18 -12z m-491 -31 c11 -17 -1 -21 -15 -4 -8 9 -8 15 -2 15 6 0
14 -5 17 -11z m480 -19 c3 -6 -1 -7 -9 -4 -18 7 -21 14 -7 14 6 0 13 -4 16
-10z m-361 -21 c3 -3 -4 -5 -14 -6 -11 -1 -22 2 -24 6 -5 8 30 8 38 0z m260 0
c-3 -6 -1 -15 6 -19 8 -5 1 -11 -21 -19 -18 -6 -34 -9 -37 -7 -2 3 7 8 22 12
14 3 23 10 20 15 -5 9 3 29 12 29 3 0 2 -5 -2 -11z m-225 -38 c10 -7 7 -9 -12
-8 -14 1 -23 5 -20 10 6 9 15 9 32 -2z"/>
<path d="M23476 6954 c-9 -8 -14 -20 -10 -25 3 -5 0 -8 -8 -7 -8 2 -14 -10
-16 -34 -7 -81 89 -120 142 -57 34 40 33 78 -2 112 -32 31 -82 36 -106 11z"/>
<path d="M21110 6819 c-14 -25 -8 -35 9 -15 7 8 19 12 27 9 21 -8 17 5 -6 17
-15 8 -21 6 -30 -11z"/>
<path d="M23651 6669 c-24 -15 -32 -25 -28 -39 3 -11 1 -18 -4 -14 -14 8 -11
-20 7 -54 15 -31 47 -47 88 -44 27 2 68 43 63 64 -3 10 -1 16 4 12 14 -8 11
14 -6 46 -15 29 -25 34 -54 31 -7 -2 -10 2 -6 8 11 18 -28 12 -64 -10z"/>
<path d="M17310 6635 c-25 -62 -41 -196 -47 -392 -10 -359 34 -661 148 -998
55 -163 159 -363 159 -307 0 5 -27 116 -60 248 -118 477 -168 861 -171 1313 0
69 -4 135 -9 146 -7 18 -9 18 -20 -10z"/>
<path d="M18132 6433 c-17 -54 -44 -152 -61 -218 -112 -424 -148 -537 -369
-1185 -27 -80 -52 -161 -56 -180 l-6 -35 30 35 c16 19 68 112 114 205 207 416
367 976 392 1372 9 133 -5 135 -44 6z"/>
<path d="M23935 6390 c-4 -6 -10 -8 -15 -5 -15 9 -42 -55 -36 -81 4 -14 10
-22 15 -20 5 3 8 -2 7 -11 -1 -22 49 -47 80 -39 23 6 59 38 59 54 0 4 4 13 8
19 8 13 -5 46 -31 76 -16 19 -77 24 -87 7z m98 -44 c4 -10 1 -13 -8 -9 -8 3
-12 9 -9 14 7 12 11 11 17 -5z"/>
<path d="M22985 6249 c-33 -5 -82 -20 -110 -34 -320 -158 -579 -872 -602
-1658 l-6 -217 -26 -6 c-250 -53 -405 -147 -533 -321 l-31 -42 -76 38 c-252
127 -632 246 -961 302 -179 30 -482 33 -605 6 -159 -35 -283 -114 -338 -216
-91 -165 -95 -467 -13 -776 13 -47 21 -85 18 -85 -16 0 -134 101 -245 210
l-127 125 -6 72 c-4 39 -10 76 -13 82 -12 18 -331 -72 -451 -127 -30 -14 -58
-25 -62 -24 -14 3 -88 -35 -81 -42 4 -4 0 -4 -8 -1 -21 8 -341 -154 -332 -168
3 -5 1 -7 -5 -3 -10 6 -109 -49 -124 -69 -5 -7 -8 -7 -8 0 0 6 -6 3 -13 -6 -7
-8 -20 -18 -29 -22 -29 -10 -220 -150 -225 -164 -3 -7 -12 -13 -19 -13 -8 0
-17 -7 -20 -15 -4 -8 -12 -15 -19 -15 -8 0 -23 -11 -34 -26 -11 -14 -23 -26
-28 -27 -4 -1 -7 -6 -5 -10 1 -5 -2 -6 -7 -3 -10 6 -25 -11 -26 -29 -1 -5 -7
-9 -14 -7 -19 4 -43 -19 -37 -35 4 -9 1 -11 -5 -7 -15 9 -281 -257 -274 -274
3 -7 1 -11 -4 -8 -12 8 -43 -29 -34 -39 5 -4 3 -5 -4 -1 -14 8 -86 -82 -76
-97 3 -5 1 -7 -5 -3 -6 3 -27 -16 -49 -43 -21 -28 -41 -50 -45 -51 -4 0 -5 30
-3 67 2 38 7 113 10 168 6 108 7 120 30 365 47 494 137 1010 269 1538 50 197
52 212 34 212 -7 0 -36 11 -64 24 l-51 24 -11 -32 c-270 -825 -407 -1632 -414
-2441 -1 -158 -6 -225 -15 -239 -15 -24 -13 -31 -57 156 -257 1078 -813 2305
-1449 3198 -33 47 -61 86 -62 87 -1 3 -113 -55 -123 -63 -2 -1 34 -65 81 -141
507 -833 933 -1734 1248 -2638 33 -93 64 -180 69 -193 17 -40 180 -564 180
-578 0 -7 -28 -64 -62 -126 -73 -134 -171 -345 -240 -518 -84 -207 -210 -611
-196 -625 7 -7 382 15 507 30 954 117 1673 593 2098 1389 157 293 281 651 353
1019 7 32 14 56 17 53 4 -3 9 -63 13 -133 4 -71 15 -159 25 -198 22 -89 84
-223 118 -254 l26 -24 83 18 c46 9 108 23 139 30 l56 13 104 -80 c57 -44 129
-98 159 -119 30 -22 82 -62 115 -90 90 -75 168 -110 246 -111 207 0 537 208
903 570 77 75 180 184 229 242 129 152 120 146 112 75 -9 -83 9 -243 40 -350
55 -190 147 -330 327 -498 88 -82 107 -105 102 -122 -6 -18 -5 -19 12 -5 17
14 18 14 6 -2 -8 -10 -19 -16 -25 -15 -7 1 -11 -4 -10 -10 2 -7 -1 -13 -6 -13
-17 0 -71 -139 -111 -285 -55 -200 -75 -257 -116 -340 -85 -169 -216 -280
-388 -330 -44 -13 -83 -16 -155 -13 -113 6 -208 38 -516 175 -349 157 -533
224 -672 248 -25 4 -43 3 -43 -2 0 -16 247 -259 333 -329 179 -144 437 -297
623 -369 66 -25 73 -26 100 -12 93 47 230 47 504 1 218 -36 415 -39 502 -6 32
11 79 35 105 53 37 26 45 29 39 13 -23 -61 -38 -175 -34 -273 4 -124 29 -190
97 -264 38 -41 115 -87 126 -75 3 3 -1 20 -9 39 -31 74 -49 200 -43 304 3 55
8 108 12 117 6 14 30 -6 123 -100 132 -132 199 -186 288 -231 161 -81 334 -79
455 4 21 15 39 30 39 34 0 3 -21 20 -46 36 -92 60 -160 180 -190 333 -22 116
-16 375 12 505 5 26 8 27 42 20 21 -4 75 -8 122 -7 198 2 349 105 550 374 110
147 221 266 305 324 54 39 69 44 152 54 98 13 183 36 304 84 l77 30 6 58 c4
32 17 79 30 104 l23 46 -73 75 c-41 41 -74 79 -74 84 0 6 17 13 38 16 63 11
174 46 227 72 84 42 326 205 322 217 -19 56 -245 41 -585 -39 -22 -5 -22 -5
-16 72 l6 78 -73 42 c-141 80 -235 109 -328 100 -79 -7 -166 -54 -171 -92 -1
-5 -8 -9 -17 -7 -8 2 -12 -1 -9 -7 4 -5 -3 -12 -14 -16 -11 -4 -18 -11 -15
-16 4 -5 0 -9 -8 -9 -25 0 -89 79 -206 253 -178 265 -333 411 -546 516 -95 47
-275 111 -313 111 -40 1 -45 15 -22 60 14 27 17 40 8 36 -7 -4 -5 -1 4 6 15
11 15 13 -4 29 l-20 18 20 -2 c12 0 18 -5 16 -9 -3 -4 0 -8 5 -8 6 0 11 7 11
15 0 14 9 17 140 50 36 9 124 34 195 57 137 43 175 51 175 38 0 -8 49 -25 64
-21 5 1 18 -7 30 -17 34 -32 64 -44 72 -30 5 7 3 8 -6 3 -9 -5 -11 -4 -6 4 4
6 12 9 17 5 5 -3 7 -10 4 -15 -4 -5 1 -9 9 -9 9 0 16 -5 16 -11 0 -6 7 -9 15
-5 8 3 15 1 15 -5 0 -6 9 -8 19 -4 11 3 22 1 26 -5 7 -12 48 -14 59 -3 4 4 15
8 24 8 9 0 16 5 15 12 -2 7 3 10 11 7 7 -3 29 4 47 15 19 12 31 21 26 21 -4 0
7 14 25 31 18 17 28 28 21 25 -6 -4 -15 -2 -18 4 -4 6 -3 10 2 9 4 -1 13 -1
19 0 13 1 60 86 66 117 1 10 6 21 10 24 11 9 13 45 3 45 -14 1 -52 24 -40 25
6 0 16 -5 23 -12 9 -9 12 -9 12 3 0 12 2 12 10 -1 7 -12 11 -10 18 10 6 17 6
27 -2 32 -8 5 -7 8 2 8 7 0 10 5 7 10 -3 6 -1 10 4 10 6 0 11 7 11 15 0 8 30
38 68 68 93 75 149 139 179 203 49 107 27 274 -59 456 l-41 87 37 34 c47 45
49 84 5 121 -35 29 -69 33 -103 11 -22 -15 -24 -12 -103 93 -307 406 -710 711
-990 747 -27 3 -57 7 -68 9 -11 2 -47 -1 -80 -5z m1018 -1924 c-7 -21 -12 -19
-10 4 0 11 5 18 9 15 4 -3 5 -11 1 -19z m52 -3 c-3 -3 -11 0 -18 7 -9 10 -8
11 6 5 10 -3 15 -9 12 -12z m-105 -17 c0 -8 -7 -15 -16 -15 -14 0 -14 3 -4 15
7 8 14 15 16 15 2 0 4 -7 4 -15z m-35 -35 c-3 -5 -14 -10 -23 -9 -14 0 -13 2
3 9 27 11 27 11 20 0z m-65 -4 c0 -2 -7 -7 -16 -10 -8 -3 -12 -2 -9 4 6 10 25
14 25 6z m185 -55 c-3 -6 -11 -11 -16 -11 -5 0 -4 6 3 14 14 16 24 13 13 -3z
m-320 -11 c3 -5 1 -10 -4 -10 -6 0 -11 5 -11 10 0 6 2 10 4 10 3 0 8 -4 11
-10z m-40 -10 c-3 -5 -12 -10 -18 -10 -7 0 -6 4 3 10 19 12 23 12 15 0z m375
7 c0 -2 -10 -12 -22 -23 l-23 -19 19 23 c18 21 26 27 26 19z m-1860 -32 c10
-12 8 -26 -13 -73 -44 -98 -51 -142 -42 -275 15 -216 12 -276 -14 -327 -41
-77 -105 -117 -170 -105 -89 17 -229 123 -272 206 -30 60 -29 151 4 221 59
128 228 283 377 345 64 26 112 29 130 8z m1405 -25 c3 -6 -1 -7 -9 -4 -18 7
-21 14 -7 14 6 0 13 -4 16 -10z m-25 -20 c-8 -5 -19 -10 -25 -10 -5 0 -3 5 5
10 8 5 20 10 25 10 6 0 3 -5 -5 -10z m400 6 c0 -3 -4 -8 -10 -11 -5 -3 -10 -1
-10 4 0 6 5 11 10 11 6 0 10 -2 10 -4z m15 -25 c-3 -6 -11 -11 -17 -11 -6 0
-6 6 2 15 14 17 26 13 15 -4z m-40 -33 c5 -4 0 -6 -12 -6 -13 1 -19 7 -16 15
3 8 8 10 12 6 3 -4 10 -11 16 -15z m-215 -8 c8 -5 12 -11 10 -14 -3 -2 -14 2
-24 10 -22 15 -10 19 14 4z m-910 -134 c0 -2 -7 -6 -15 -10 -8 -3 -15 -1 -15
4 0 6 7 10 15 10 8 0 15 -2 15 -4z m110 -22 c0 -2 -12 -4 -27 -4 -21 0 -24 3
-14 9 13 8 41 5 41 -5z m-120 -14 c-18 -12 -30 -13 -30 -2 0 4 10 9 22 9 18 2
20 0 8 -7z m127 -16 c-3 -3 -12 -4 -19 -1 -8 3 -5 6 6 6 11 1 17 -2 13 -5z
m59 -593 c101 -45 205 -136 345 -301 117 -138 244 -318 349 -495 29 -49 73
-119 98 -153 51 -73 52 -91 6 -192 -63 -140 -241 -232 -422 -217 -124 10 -133
16 -181 113 -53 106 -157 215 -346 361 -215 165 -290 243 -363 373 -37 66 -77
170 -86 225 l-7 40 71 2 c39 1 78 7 86 14 8 6 14 8 14 4 0 -8 86 40 112 63 10
8 15 19 12 24 -3 4 -2 8 3 7 23 -4 35 5 62 45 28 41 29 44 14 66 -15 22 -17
22 -30 5 -15 -21 -18 -8 -3 15 8 12 11 12 28 -3 10 -9 22 -14 27 -10 4 5 5 2
0 -6 -6 -10 -4 -12 4 -6 8 4 11 20 9 36 -3 15 -2 26 2 24 3 -2 12 0 19 4 16
10 117 -12 177 -38z m-301 19 c-3 -5 -14 -10 -23 -10 -15 0 -15 2 -2 10 20 13
33 13 25 0z m-55 -40 c0 -5 -7 -7 -15 -4 -8 4 -15 8 -15 10 0 2 7 4 15 4 8 0
15 -4 15 -10z m101 -23 c-10 -9 -11 -8 -5 6 3 10 9 15 12 12 3 -3 0 -11 -7
-18z m7 -27 c-24 -33 -27 -34 -48 -19 -12 9 -12 10 4 5 12 -4 24 2 38 19 28
35 33 31 6 -5z m-193 10 c3 -6 -1 -7 -9 -4 -18 7 -21 14 -7 14 6 0 13 -4 16
-10z m40 -10 c3 -6 -1 -7 -9 -4 -18 7 -21 14 -7 14 6 0 13 -4 16 -10z m75 -14
c0 -2 -8 -10 -17 -17 -16 -13 -17 -12 -4 4 13 16 21 21 21 13z m20 -21 c0 -2
-10 -10 -22 -16 -21 -11 -22 -11 -9 4 13 16 31 23 31 12z m-118 -93 c-7 -2 -9
-9 -5 -15 3 -7 2 -8 -2 -4 -16 14 -14 36 3 29 10 -4 12 -7 4 -10z m48 14 c0
-2 -7 -7 -16 -10 -8 -3 -12 -2 -9 4 6 10 25 14 25 6z m-4640 -22 c0 -8 -19
-13 -24 -6 -3 5 1 9 9 9 8 0 15 -2 15 -3z m4525 -4 c-3 -5 -12 -10 -18 -10 -7
0 -6 4 3 10 19 12 23 12 15 0z m-275 -1031 c0 -6 -4 -7 -10 -4 -5 3 -10 11
-10 16 0 6 5 7 10 4 6 -3 10 -11 10 -16z m84 -8 c20 -21 24 -31 15 -36 -7 -5
-10 -4 -6 2 4 6 -8 22 -25 37 -18 14 -27 26 -22 26 6 0 23 -13 38 -29z m-127
-10 c0 -11 -5 -18 -9 -15 -4 3 -5 11 -1 19 7 21 12 19 10 -4z m74 10 c6 10 8
7 6 -8 -1 -17 -4 -19 -14 -11 -7 6 -13 16 -12 22 0 6 3 5 6 -3 5 -11 7 -11 14
0z m-41 -21 c0 -5 -5 -10 -11 -10 -5 0 -7 5 -4 10 3 6 8 10 11 10 2 0 4 -4 4
-10z m147 -40 c10 -13 8 -16 -6 -16 -13 0 -17 6 -13 19 2 10 5 16 6 15 1 -2 7
-10 13 -18z"/>
<path d="M18766 6136 c-13 -30 -27 -65 -31 -78 -4 -12 -25 -62 -47 -111 -21
-48 -36 -92 -32 -99 4 -6 3 -8 -3 -5 -6 4 -25 -21 -43 -56 -121 -229 -295
-458 -587 -773 -170 -184 -203 -222 -203 -235 0 -6 19 0 43 14 23 15 41 30 40
35 -1 5 4 9 11 9 15 0 76 44 76 55 0 4 6 8 13 8 26 0 350 315 362 353 4 9 10
17 15 17 14 0 155 193 214 293 119 202 190 393 211 570 8 74 -7 75 -39 3z
m-876 -1300 c0 -2 -8 -10 -17 -17 -16 -13 -17 -12 -4 4 13 16 21 21 21 13z"/>
<path d="M24143 6128 c-31 -35 -36 -58 -16 -81 10 -11 12 -17 5 -13 -11 7 -12
4 -3 -11 16 -31 65 -48 99 -34 32 13 68 66 52 76 -5 3 -10 12 -10 18 0 7 4 6
10 -3 15 -23 12 -2 -5 29 -16 32 -33 41 -79 41 -21 0 -40 -8 -53 -22z"/>
<path d="M24257 5808 c-19 -7 -26 -15 -23 -25 3 -8 2 -12 -3 -9 -4 3 -13 -6
-19 -19 -17 -38 12 -95 54 -109 25 -8 78 10 70 23 -3 5 2 8 11 7 9 0 20 10 25
26 13 39 -14 93 -54 107 -17 6 -31 11 -32 10 -1 0 -14 -5 -29 -11z"/>
<path d="M1180 5335 c-222 -62 -384 -348 -326 -575 28 -108 92 -188 181 -226
41 -17 159 -19 206 -2 128 43 251 178 299 327 31 97 26 232 -11 311 -67 143
-201 206 -349 165z"/>
<path d="M15255 4121 c-3 -5 -2 -12 3 -15 5 -3 9 1 9 9 0 17 -3 19 -12 6z"/>
<path d="M15111 3874 c0 -11 3 -14 6 -6 3 7 2 16 -1 19 -3 4 -6 -2 -5 -13z"/>
<path d="M15693 2885 c0 -22 2 -30 4 -17 2 12 2 30 0 40 -3 9 -5 -1 -4 -23z"/>
<path d="M15682 2720 c0 -14 2 -19 5 -12 2 6 2 18 0 25 -3 6 -5 1 -5 -13z"/>
<path d="M4035 2640 c-3 -5 -1 -10 4 -10 6 0 11 5 11 10 0 6 -2 10 -4 10 -3 0
-8 -4 -11 -10z"/>
<path d="M15672 2590 c0 -14 2 -19 5 -12 2 6 2 18 0 25 -3 6 -5 1 -5 -13z"/>
<path d="M15661 2494 c0 -11 3 -14 6 -6 3 7 2 16 -1 19 -3 4 -6 -2 -5 -13z"/>
<path d="M25980 2390 c-9 -6 -10 -10 -3 -10 6 0 15 5 18 10 8 12 4 12 -15 0z"/>
<path d="M15641 2334 c0 -11 3 -14 6 -6 3 7 2 16 -1 19 -3 4 -6 -2 -5 -13z"/>
<path d="M25860 2200 c-9 -6 -10 -10 -3 -10 6 0 15 5 18 10 8 12 4 12 -15 0z"/>
<path d="M15061 2174 c0 -11 3 -14 6 -6 3 7 2 16 -1 19 -3 4 -6 -2 -5 -13z"/>
<path d="M8328 2143 c6 -2 18 -2 25 0 6 3 1 5 -13 5 -14 0 -19 -2 -12 -5z"/>
<path d="M25639 2093 c-13 -16 -12 -17 4 -4 9 7 17 15 17 17 0 8 -8 3 -21 -13z"/>
<path d="M11295 2069 c-4 -6 -5 -12 -2 -15 2 -3 7 2 10 11 7 17 1 20 -8 4z"/>
<path d="M9035 2031 c-3 -5 -2 -12 3 -15 5 -3 9 1 9 9 0 17 -3 19 -12 6z"/>
<path d="M10605 1991 c-3 -5 -2 -12 3 -15 5 -3 9 1 9 9 0 17 -3 19 -12 6z"/>
<path d="M11210 1920 c-6 -11 -8 -20 -6 -20 3 0 10 9 16 20 6 11 8 20 6 20 -3
0 -10 -9 -16 -20z"/>
<path d="M12076 1633 c-6 -14 -5 -15 5 -6 7 7 10 15 7 18 -3 3 -9 -2 -12 -12z"/>
<path d="M25160 1641 c0 -6 4 -13 10 -16 6 -3 7 1 4 9 -7 18 -14 21 -14 7z"/>
<path d="M12026 1552 c-3 -5 1 -9 9 -9 8 0 12 4 9 9 -3 4 -7 8 -9 8 -2 0 -6
-4 -9 -8z"/>
<path d="M10006 1373 c-4 -9 -3 -20 1 -24 4 -4 9 3 9 17 2 28 -1 31 -10 7z"/>
<path d="M12505 1290 c-3 -5 -2 -10 4 -10 5 0 13 5 16 10 3 6 2 10 -4 10 -5 0
-13 -4 -16 -10z"/>
<path d="M11784 1218 l-19 -23 23 19 c21 18 27 26 19 26 -2 0 -12 -10 -23 -22z"/>
<path d="M9749 1203 c-13 -16 -12 -17 4 -4 16 13 21 21 13 21 -2 0 -10 -8 -17
-17z"/>
<path d="M11694 1118 c-29 -31 -29 -31 -2 -12 15 10 29 25 32 32 8 18 2 15
-30 -20z"/>
<path d="M14726 1133 c-6 -14 -5 -15 5 -6 7 7 10 15 7 18 -3 3 -9 -2 -12 -12z"/>
<path d="M11589 1023 c-13 -16 -12 -17 4 -4 9 7 17 15 17 17 0 8 -8 3 -21 -13z"/>
<path d="M14617 933 c-11 -11 -8 -20 7 -20 8 0 12 6 9 14 -6 15 -7 15 -16 6z"/>
<path d="M9526 878 c3 -5 10 -6 15 -3 13 9 11 12 -6 12 -8 0 -12 -4 -9 -9z"/>
<path d="M12110 763 l-55 -58 58 55 c53 50 62 60 54 60 -1 0 -27 -26 -57 -57z"/>
<path d="M9495 770 c3 -5 8 -10 11 -10 2 0 4 5 4 10 0 6 -5 10 -11 10 -5 0 -7
-4 -4 -10z"/>
<path d="M12829 503 l-24 -28 28 24 c15 14 27 26 27 28 0 8 -8 1 -31 -24z"/>
</g>
</svg>
