<?xml version="1.0" standalone="no"?>
<!DOCTYPE svg PUBLIC "-//W3C//DTD SVG 20010904//EN"
 "http://www.w3.org/TR/2001/REC-SVG-20010904/DTD/svg10.dtd">
<svg version="1.0" xmlns="http://www.w3.org/2000/svg"
 width="3000.000000pt" height="3000.000000pt" viewBox="0 0 3000.000000 3000.000000"
 preserveAspectRatio="xMidYMid meet">

<g transform="translate(0.000000,3000.000000) scale(0.100000,-0.100000)"
fill="#000000" stroke="none">
<path d="M9122 23606 c-161 -41 -333 -180 -463 -374 -207 -310 -345 -761 -390
-1281 -15 -169 -6 -634 15 -786 81 -606 272 -1078 535 -1329 34 -32 61 -60 59
-61 -2 -2 -64 -32 -138 -68 -283 -137 -600 -333 -747 -463 -768 -677 -1217
-1347 -1389 -2073 -124 -522 -86 -1135 102 -1637 85 -229 173 -401 315 -613
96 -144 107 -179 67 -204 -13 -8 -86 -52 -163 -97 -360 -214 -747 -488 -1020
-724 -38 -33 -77 -66 -87 -74 -14 -11 -31 -10 -120 12 -276 67 -506 91 -811
83 -329 -8 -578 -51 -882 -152 -878 -291 -1622 -946 -2075 -1828 -209 -406
-330 -790 -397 -1257 -25 -178 -25 -673 0 -845 106 -725 391 -1310 893 -1834
812 -847 2122 -1376 3844 -1550 765 -78 1819 -92 2600 -36 1466 107 2657 436
3575 988 739 445 1300 1050 1655 1784 147 305 285 720 345 1043 10 52 21 98
25 103 3 4 31 -4 61 -17 93 -43 182 -59 329 -60 149 -1 212 11 306 55 75 35
197 121 299 211 42 38 79 68 83 68 4 0 25 -28 47 -61 116 -177 298 -272 520
-272 183 0 302 60 476 240 90 93 148 177 199 286 l37 81 7 -57 c15 -114 124
-290 244 -390 129 -108 284 -159 492 -160 163 -1 244 15 362 72 268 129 430
310 512 571 31 97 56 247 56 335 l0 60 108 33 c240 74 362 169 362 282 0 16
-3 30 -6 30 -3 0 -34 -24 -69 -54 -140 -119 -240 -161 -366 -154 -71 4 -82 8
-96 29 -9 13 -53 61 -97 105 -85 85 -210 173 -376 264 -153 84 -229 139 -326
235 -63 62 -102 110 -125 155 l-34 65 -2 160 -1 160 -40 14 c-79 29 -160 -20
-338 -201 -94 -95 -109 -116 -195 -273 -132 -241 -369 -714 -369 -736 0 -30
15 -22 45 22 15 23 53 77 85 120 53 72 165 265 284 494 26 50 70 119 99 154
51 64 148 151 168 151 6 0 8 -21 4 -57 -8 -72 6 -189 35 -285 22 -73 26 -79
236 -318 118 -134 214 -247 214 -252 0 -11 -49 -10 -193 4 -159 15 -270 0
-376 -48 -88 -40 -170 -101 -210 -155 l-28 -39 -7 57 c-10 82 -26 133 -48 144
-23 12 -22 14 -46 -126 -23 -130 -72 -266 -154 -428 -119 -234 -231 -342 -368
-354 -55 -5 -58 -4 -92 30 -43 43 -73 119 -98 247 -41 210 -45 293 -45 935 0
669 1 680 55 803 24 54 18 64 -55 98 -67 32 -189 34 -250 4 -56 -27 -149 -113
-231 -213 -37 -45 -73 -88 -80 -96 -10 -11 -21 -5 -66 36 -202 189 -404 302
-541 303 l-57 0 25 49 c40 79 74 193 81 268 11 118 -37 233 -103 246 -44 8
-111 -18 -258 -103 -77 -44 -145 -80 -150 -80 -6 0 -66 59 -135 132 -173 183
-219 200 -298 114 -134 -145 -116 -480 42 -800 l43 -89 -59 -146 c-284 -697
-608 -1255 -992 -1710 -558 -662 -1284 -1087 -2081 -1220 -258 -43 -314 -46
-830 -46 -531 0 -577 3 -975 63 -103 15 -115 19 -114 37 1 11 12 74 23 140
125 689 -139 1504 -777 2398 -372 523 -825 1002 -1226 1298 -47 35 -86 68 -86
74 0 5 37 60 82 120 107 144 368 405 518 517 199 148 447 298 494 298 15 0 73
-20 129 -44 786 -343 1519 -499 2062 -442 1104 118 1750 389 1970 826 76 151
93 269 51 362 -114 256 -441 439 -931 521 -264 45 -375 52 -780 52 -414 -1
-455 -4 -1188 -85 -196 -22 -373 -40 -393 -40 -133 0 -238 222 -328 688 -25
125 -26 149 -26 460 0 553 16 633 194 1007 186 390 409 710 685 985 436 434
962 684 1587 754 247 28 363 29 559 7 647 -75 1055 -214 1254 -427 114 -121
141 -205 141 -435 0 -86 -5 -180 -10 -210 -57 -302 -469 -661 -1180 -1031
l-145 -76 -150 -22 c-158 -23 -483 -77 -521 -86 -22 -6 -22 -5 7 76 91 256 98
543 18 702 -43 88 -117 144 -173 134 -41 -8 -115 -83 -196 -201 -92 -132 -94
-134 -107 -135 -6 0 -76 27 -155 61 -169 72 -233 88 -273 68 -123 -60 -100
-293 51 -520 71 -108 239 -272 359 -351 288 -190 439 -228 913 -228 l270 0
137 50 c627 229 1070 516 1329 860 259 344 339 776 221 1185 -14 50 -48 135
-74 190 -42 86 -64 116 -157 216 -285 303 -567 521 -892 687 l-144 74 80 81
c483 498 752 1538 597 2313 -73 364 -240 622 -449 694 -116 39 -215 35 -337
-14 -108 -43 -172 -89 -290 -206 -313 -311 -535 -818 -630 -1440 -19 -122 -23
-187 -23 -415 0 -259 8 -364 41 -493 5 -22 3 -22 -48 11 -209 133 -446 207
-667 207 -113 0 -247 -18 -320 -44 -23 -8 -42 -13 -42 -11 0 3 17 67 39 142
170 605 169 1361 -3 1960 -102 353 -244 622 -421 798 -86 85 -155 131 -257
173 -77 30 -214 39 -296 18z m286 -1347 c226 -103 403 -456 474 -944 20 -139
17 -562 -5 -705 -73 -468 -247 -805 -472 -911 -50 -24 -73 -29 -137 -29 -96 0
-162 23 -240 85 -183 144 -325 470 -384 880 -24 166 -24 525 0 690 78 537 287
906 545 961 75 16 143 8 219 -27z m2767 -83 c115 -49 212 -198 280 -431 55
-190 69 -315 70 -615 0 -178 -5 -309 -13 -370 -67 -471 -221 -813 -411 -910
-63 -31 -155 -28 -212 8 -123 79 -214 250 -272 512 -40 179 -51 297 -51 535 1
309 35 544 114 785 103 317 252 498 408 500 29 0 68 -7 87 -14z m-1335 -7226
c221 -31 400 -73 400 -94 0 -30 -261 -177 -407 -229 -135 -49 -227 -60 -448
-54 -313 9 -510 60 -684 180 l-45 30 40 14 c87 31 338 96 474 123 314 64 399
68 670 30z m-5804 -1926 l51 -6 -74 -112 c-461 -689 -670 -1523 -577 -2304 37
-318 148 -747 245 -952 270 -568 696 -1082 1177 -1419 34 -24 62 -46 62 -49 0
-10 -408 8 -530 23 -500 63 -857 242 -961 482 -28 64 -42 160 -34 233 8 82 54
221 105 319 l39 76 -14 68 c-98 459 -499 908 -778 871 -113 -15 -130 -82 -77
-319 17 -79 30 -154 28 -167 -2 -19 -26 -32 -135 -78 -163 -69 -204 -92 -237
-131 -47 -56 -25 -133 60 -208 174 -153 543 -202 893 -120 46 10 85 18 86 17
1 -2 -19 -40 -45 -85 -129 -223 -144 -454 -45 -661 45 -95 96 -161 191 -252
266 -254 725 -426 1334 -502 126 -16 779 -17 884 -1 67 9 73 9 179 -29 522
-184 1087 -280 1814 -309 915 -37 1760 94 2508 388 166 66 496 224 650 313
359 206 713 474 1019 771 167 162 279 301 450 559 299 450 517 907 716 1499
54 159 81 226 84 210 3 -13 12 -60 21 -104 29 -144 95 -345 156 -483 l29 -63
-25 -117 c-139 -647 -420 -1239 -820 -1729 -186 -228 -494 -510 -761 -700
-1273 -903 -3214 -1244 -5824 -1023 -941 80 -1767 258 -2450 527 -210 82 -566
257 -738 362 -859 521 -1344 1207 -1454 2051 -15 124 -15 467 1 595 43 341
134 639 292 955 403 805 1111 1383 1904 1555 199 43 468 65 601 49z m1704
-754 c360 -299 838 -855 1128 -1310 214 -337 357 -666 413 -950 18 -89 23
-151 23 -272 1 -86 -2 -160 -6 -164 -9 -8 -68 17 -243 102 -960 467 -1465
1128 -1514 1984 -12 211 13 613 45 713 7 21 -5 29 154 -103z m8408 80 c149
-41 267 -122 296 -203 12 -34 16 -124 20 -472 2 -259 11 -523 21 -665 19 -259
16 -293 -32 -363 -60 -86 -220 -157 -353 -156 -41 0 -92 6 -113 13 -84 31
-155 110 -208 235 -88 210 -133 652 -94 927 64 455 190 696 365 703 14 1 58
-8 98 -19z m2648 -1061 c84 -43 117 -134 94 -259 -24 -133 -92 -218 -225 -281
-44 -21 -116 -45 -160 -54 -73 -14 -87 -14 -155 0 -140 30 -235 90 -283 180
-17 32 -21 58 -22 130 0 81 3 95 30 144 42 75 126 134 235 161 19 5 126 8 236
7 193 -3 204 -4 250 -28z"/>
<path d="M25062 20095 c-29 -15 -57 -36 -63 -47 -26 -49 -8 -117 65 -244 l36
-62 -118 -6 c-235 -14 -725 -58 -767 -70 -5 -1 -43 20 -85 47 -373 244 -888
290 -1033 92 -52 -72 -24 -139 102 -239 34 -27 58 -52 54 -56 -5 -4 -69 -19
-143 -34 -74 -15 -230 -50 -347 -77 l-211 -50 -73 48 c-273 176 -681 250 -935
169 -93 -30 -152 -69 -190 -126 -54 -82 -18 -139 168 -261 59 -40 108 -74 108
-78 0 -3 -60 -24 -133 -45 -72 -22 -225 -70 -339 -107 l-207 -66 -93 47 c-362
185 -816 200 -992 32 -104 -100 -81 -160 109 -288 63 -43 115 -81 115 -84 0
-4 -35 -20 -77 -35 -264 -95 -929 -356 -1269 -498 l-130 -54 -106 52 c-337
165 -782 181 -982 34 -49 -35 -96 -103 -96 -136 0 -58 62 -120 194 -194 48
-26 56 -34 44 -43 -8 -6 -77 -65 -153 -131 -151 -132 -244 -199 -347 -251 -62
-31 -177 -69 -185 -61 -12 13 -27 378 -27 672 0 638 64 1039 199 1244 49 74
46 113 -12 157 -74 57 -144 77 -263 78 -319 2 -559 -197 -645 -536 -47 -188
-48 -260 -15 -1014 17 -378 27 -696 24 -707 -6 -19 -13 -19 -103 -14 -122 8
-238 28 -421 73 -281 69 -791 251 -817 291 -25 38 -35 230 -29 558 9 524 56
787 186 1050 28 55 50 112 50 127 0 38 -59 101 -118 126 -163 70 -395 64 -547
-15 -224 -116 -361 -345 -397 -662 -9 -85 -9 -167 1 -377 6 -148 15 -357 18
-465 l6 -196 -94 -6 c-160 -11 -396 -55 -468 -88 -151 -69 -280 -181 -329
-286 -23 -49 -28 -74 -30 -165 -6 -172 29 -243 119 -243 53 0 83 20 124 83 58
86 192 219 283 279 130 87 365 174 393 146 20 -20 58 -401 96 -970 16 -252 16
-265 -1 -340 -87 -370 -258 -593 -494 -642 -68 -14 -236 -14 -304 0 -165 35
-271 152 -319 357 -24 98 -21 221 7 322 23 81 106 248 154 309 l41 52 32 -48
c45 -69 203 -222 272 -263 68 -40 176 -79 221 -80 44 0 96 19 117 42 28 33 20
85 -32 213 -38 92 -46 123 -38 134 7 7 50 40 97 71 98 66 150 120 150 155 0
35 -61 99 -119 124 -80 34 -185 45 -299 31 -168 -20 -381 -102 -461 -178 -19
-18 -65 -55 -102 -83 -212 -157 -333 -378 -360 -653 -25 -264 68 -506 268
-697 89 -85 195 -145 319 -181 70 -20 99 -23 264 -22 166 0 198 3 305 28 277
64 490 175 659 342 157 156 263 321 319 499 49 157 50 187 43 798 -6 434 -5
567 4 567 7 0 82 -22 168 -50 236 -74 544 -160 867 -241 160 -39 295 -77 302
-83 25 -24 67 -511 118 -1396 12 -197 21 -284 32 -307 20 -44 64 -57 159 -48
66 6 80 11 122 45 129 101 229 278 278 487 42 182 47 247 53 762 l6 503 125
38 c217 65 380 138 490 220 52 39 70 43 70 15 0 -22 48 -53 101 -64 211 -46
556 212 740 553 23 43 54 111 70 150 32 84 -9 63 439 226 505 184 1070 375
1070 361 0 -4 -15 -45 -34 -92 -48 -120 -63 -196 -45 -233 28 -58 60 -71 167
-71 83 1 107 5 165 29 113 47 214 120 332 240 112 113 172 193 245 328 l40 75
88 26 c102 31 523 147 532 147 4 0 -6 -37 -22 -82 -29 -87 -35 -156 -17 -190
17 -31 86 -58 155 -58 204 -1 459 176 657 453 l59 82 96 22 c246 57 770 158
778 150 2 -2 -17 -48 -42 -101 -50 -105 -62 -178 -35 -210 25 -30 92 -58 151
-63 109 -10 263 42 411 139 104 68 263 216 324 302 32 44 47 56 75 60 101 16
580 46 729 46 l74 0 -47 -50 c-90 -96 -95 -153 -19 -220 115 -101 365 -108
621 -18 110 38 265 117 344 175 l60 44 102 -17 c102 -17 368 -81 439 -106 l38
-14 -45 -21 c-80 -39 -99 -99 -56 -182 66 -131 273 -237 528 -271 58 -8 147
-11 242 -8 l150 6 66 -71 c94 -102 279 -386 261 -403 -2 -2 -22 3 -45 12 -51
21 -85 13 -123 -29 -42 -46 -62 -116 -61 -217 2 -224 136 -498 350 -721 l95
-100 -6 -246 c-3 -135 -10 -250 -14 -254 -6 -6 -30 21 -59 63 -65 97 -122 158
-161 175 -28 11 -38 11 -73 -3 -70 -28 -123 -105 -156 -225 -25 -89 -25 -312
-1 -429 36 -168 105 -342 185 -466 l39 -61 -32 -79 c-78 -192 -169 -360 -254
-474 -88 -117 -253 -262 -280 -246 -30 19 -33 116 -28 791 3 374 10 734 16
800 30 336 66 521 119 619 29 53 29 54 11 89 -39 76 -104 107 -224 107 -84 0
-159 -19 -219 -54 -96 -56 -187 -197 -226 -349 -41 -164 -70 -566 -70 -1007 0
-156 -5 -246 -15 -293 -33 -155 -147 -300 -306 -389 -91 -52 -116 -57 -155
-32 -28 19 -70 86 -85 136 -49 169 -103 787 -103 1188 0 250 11 360 60 624 22
114 24 140 13 147 -26 16 -154 31 -225 27 -86 -6 -139 -33 -226 -115 -66 -63
-120 -159 -145 -259 -16 -62 -18 -125 -18 -614 0 -554 3 -611 41 -805 32 -162
104 -340 164 -408 79 -91 245 -164 390 -174 184 -12 332 54 607 270 l23 19 0
-242 c0 -225 -1 -241 -17 -236 -40 13 -259 45 -405 61 -145 15 -167 15 -300 0
-185 -21 -242 -35 -363 -94 -242 -118 -362 -317 -326 -540 40 -248 319 -597
564 -705 209 -93 437 -106 652 -39 195 62 337 153 496 321 182 192 280 414
296 667 l6 100 57 65 c287 330 472 639 576 960 26 80 48 150 49 156 2 6 41 32
87 58 276 155 505 409 572 635 33 113 11 252 -45 281 -39 22 -126 6 -249 -45
-63 -26 -120 -49 -127 -52 -8 -3 -6 21 7 79 24 112 58 325 66 423 l7 80 64 70
c129 139 244 340 300 523 22 74 26 107 27 217 1 123 0 133 -27 187 -68 139
-147 131 -332 -31 -44 -39 -82 -71 -85 -71 -3 0 -26 67 -53 148 -74 231 -192
448 -337 620 -54 64 -60 77 -84 173 -63 252 -177 461 -329 606 -91 86 -143
118 -228 139 -77 19 -129 6 -163 -39 -19 -26 -21 -42 -20 -158 1 -115 -1 -129
-15 -123 -214 88 -530 169 -798 204 -89 12 -93 14 -124 52 -45 57 -203 185
-298 242 -45 27 -123 65 -174 84 -78 30 -107 36 -197 39 -98 4 -108 3 -158
-22z m1028 -5358 c74 -20 193 -55 265 -79 151 -50 142 -39 144 -197 2 -189
-41 -398 -101 -499 -104 -173 -326 -239 -616 -183 -104 20 -197 66 -337 166
-133 94 -231 216 -255 315 -17 72 -5 183 28 244 128 237 487 333 872 233z"/>
<path d="M12137 17975 c-346 -172 -624 -316 -619 -319 31 -19 157 -37 256 -37
292 1 574 148 815 426 76 87 186 234 179 240 -2 1 -286 -139 -631 -310z"/>
<path d="M18512 17404 c-164 -36 -265 -89 -376 -199 -142 -140 -233 -325 -288
-585 -25 -122 -36 -491 -19 -625 28 -213 102 -471 186 -651 73 -156 176 -241
355 -290 94 -26 360 -26 445 -1 109 34 267 136 403 262 35 32 66 54 70 49 4
-5 25 -35 46 -67 119 -177 321 -276 541 -264 131 7 209 35 309 111 l83 64 7
-302 c13 -578 32 -808 81 -1001 94 -370 247 -572 449 -592 65 -6 209 27 297
68 l64 31 -65 56 c-143 124 -156 141 -173 217 -37 163 -62 536 -76 1135 -11
450 -15 432 87 366 285 -184 620 -235 872 -134 141 56 260 157 463 387 51 58
132 148 181 200 49 53 116 131 150 175 l61 78 2 -283 c3 -377 21 -1075 34
-1269 14 -217 25 -298 59 -432 77 -307 192 -493 348 -566 82 -39 182 -37 314
7 53 17 107 40 120 51 l23 20 -22 17 c-75 60 -183 162 -192 182 -46 95 -82
554 -97 1257 -8 376 -9 374 76 317 87 -59 251 -132 357 -159 242 -62 456 -37
651 77 59 35 226 197 361 350 42 47 121 135 175 195 199 219 306 390 314 504
7 99 -3 103 -53 20 -123 -199 -251 -350 -340 -401 -53 -31 -85 -37 -85 -16 0
6 10 104 21 217 25 245 26 400 5 535 -17 106 -72 332 -104 426 -39 117 -198
314 -316 391 -89 57 -167 78 -295 78 -220 0 -365 -69 -581 -276 -53 -52 -103
-94 -110 -94 -20 0 -6 73 35 179 19 51 35 97 35 101 0 16 -83 57 -139 70 -71
17 -191 8 -264 -20 -111 -42 -216 -164 -270 -317 -51 -142 -59 -219 -63 -613
l-4 -365 -40 -57 c-103 -148 -214 -250 -287 -264 l-31 -6 4 38 c15 130 34 348
40 442 10 168 -17 351 -94 627 -31 112 -44 141 -94 217 -104 155 -229 267
-353 314 -41 16 -76 19 -200 19 -144 0 -153 -1 -226 -31 -110 -45 -209 -114
-330 -231 -104 -101 -139 -122 -139 -84 0 19 64 211 81 243 13 25 -43 64 -122
84 -83 21 -202 15 -283 -16 -124 -47 -239 -202 -286 -384 -36 -143 -40 -226
-40 -899 l0 -658 -55 -55 c-30 -30 -78 -66 -107 -79 -56 -26 -134 -33 -168
-15 -47 25 -98 152 -124 307 -34 198 -40 345 -41 913 0 616 3 653 59 776 l25
54 -33 25 c-76 58 -211 74 -295 33 -55 -27 -172 -137 -253 -238 -33 -41 -64
-76 -68 -78 -4 -2 -42 28 -85 65 -158 140 -316 238 -432 268 -67 18 -87 18
-171 -1z m2954 -264 c129 -63 219 -260 271 -590 24 -153 24 -462 0 -610 -22
-142 -37 -210 -46 -210 -4 0 -52 7 -107 15 -126 19 -261 19 -361 0 -106 -20
-240 -87 -323 -163 l-65 -59 3 566 c1 311 7 591 12 621 6 30 27 90 47 133 32
69 46 86 112 139 206 166 343 213 457 158z m2412 -6 c119 -59 201 -228 253
-519 21 -113 24 -162 24 -375 0 -213 -3 -262 -23 -375 -13 -71 -25 -131 -27
-133 -1 -2 -54 5 -116 14 -280 41 -502 -8 -664 -147 -28 -24 -58 -50 -68 -58
-18 -15 -19 2 -12 569 7 634 7 636 65 749 15 31 43 70 62 87 64 61 174 137
252 175 102 50 174 53 254 13z m-4972 -15 c135 -42 224 -103 267 -183 21 -40
22 -53 28 -531 4 -269 12 -551 18 -625 18 -197 16 -261 -6 -312 -53 -117 -207
-198 -380 -198 -71 0 -98 5 -138 24 -169 78 -269 370 -291 846 -15 335 87 766
217 914 78 88 154 105 285 65z m2629 -1500 c92 -29 90 -26 60 -105 -51 -136
-139 -235 -243 -274 -82 -32 -185 -25 -276 18 -135 63 -146 83 -102 177 41 88
145 158 294 195 89 22 171 19 267 -11z m2314 21 c36 -5 91 -19 122 -31 l58
-21 -25 -66 c-50 -133 -112 -212 -205 -262 -115 -61 -251 -50 -385 31 -51 31
-54 35 -54 74 0 26 11 58 31 93 47 83 151 143 309 178 70 15 73 15 149 4z"/>
<path d="M9414 16661 c-98 -25 -229 -134 -309 -256 -133 -202 -215 -468 -215
-695 l0 -98 43 -10 c156 -39 400 -40 572 -4 110 24 254 77 331 123 123 73 205
180 206 270 1 78 -49 105 -292 159 -80 17 -147 34 -150 36 -2 3 -5 82 -6 177
-2 188 -11 241 -48 276 -26 25 -83 34 -132 22z"/>
<path d="M19435 14556 c-94 -23 -178 -80 -257 -173 -77 -93 -123 -211 -158
-407 -42 -238 -52 -386 -57 -848 l-5 -448 -87 0 c-174 0 -320 -30 -341 -71
-12 -22 -13 -69 -1 -87 13 -22 107 -48 275 -78 l156 -28 0 -86 c0 -317 32
-1054 56 -1284 51 -509 180 -739 440 -787 113 -21 280 16 403 88 78 46 201
160 256 236 22 31 42 56 45 56 3 0 23 -38 45 -86 68 -146 169 -228 344 -275
90 -25 324 -30 431 -9 203 40 391 130 525 253 93 85 227 321 282 498 19 60 45
111 90 178 76 112 144 245 208 407 26 66 48 121 50 123 3 4 126 -26 132 -32 3
-3 0 -154 -7 -336 -7 -182 -9 -361 -6 -398 12 -110 53 -251 107 -360 116 -234
304 -346 579 -345 147 0 210 20 321 99 171 123 316 308 379 482 49 136 62 212
64 374 1 125 -2 150 -16 164 -19 19 -38 11 -38 -16 0 -10 -22 -86 -49 -168
-132 -398 -281 -631 -440 -687 -67 -23 -143 -20 -168 8 -83 90 -134 395 -150
897 -7 226 2 343 44 570 41 226 42 201 -14 229 -29 14 -73 26 -114 29 -62 4
-72 2 -180 -46 -214 -95 -207 -93 -283 -76 l-66 16 0 91 c-1 191 -32 331 -85
384 -39 39 -69 42 -128 12 -59 -31 -169 -144 -202 -209 -95 -188 -65 -352 106
-565 l72 -89 -28 -86 c-40 -127 -128 -346 -132 -333 -2 6 -10 33 -16 59 -7 26
-17 49 -22 51 -6 2 -43 -96 -83 -217 -68 -205 -76 -221 -110 -248 -20 -16 -47
-34 -59 -41 -33 -17 -31 -45 2 -37 14 4 25 4 25 0 0 -15 -103 -147 -168 -216
-125 -131 -254 -198 -381 -198 -176 0 -298 174 -371 529 -26 127 -26 139 3
145 124 26 323 81 412 115 146 55 254 121 340 206 113 113 155 215 155 376 0
75 -4 97 -35 172 -77 191 -160 322 -273 429 -92 86 -171 131 -278 158 -148 38
-302 18 -459 -60 -259 -128 -405 -361 -471 -755 -13 -73 -17 -161 -18 -325 0
-229 9 -339 44 -512 l20 -97 -31 -53 c-115 -196 -252 -318 -358 -318 -35 0
-43 4 -56 30 -62 120 -108 752 -117 1614 l-3 258 27 23 c22 19 41 23 152 29
147 8 217 26 245 63 24 29 26 51 9 87 -19 43 -52 56 -178 71 -145 18 -220 34
-239 48 -11 9 -12 65 -7 317 16 747 64 1138 162 1332 13 26 24 52 24 58 0 5
-28 31 -62 56 -99 74 -146 88 -223 70z m2655 -2168 c0 -46 -3 -107 -7 -136 -6
-50 -7 -53 -32 -50 -37 4 -52 41 -49 113 3 44 11 74 31 108 43 72 57 63 57
-35z m-928 -76 c122 -60 211 -136 248 -208 19 -38 26 -68 28 -134 l4 -85 -51
-102 c-57 -114 -87 -147 -232 -254 -155 -114 -344 -200 -495 -224 -37 -6 -42
-4 -48 17 -17 55 -18 274 -2 384 69 460 193 673 387 661 44 -2 80 -15 161 -55z"/>
<path d="M8025 13902 c-270 -70 -562 -287 -719 -535 l-37 -58 58 -58 c90 -90
216 -177 348 -242 312 -152 610 -168 746 -40 75 72 54 126 -118 302 -68 69
-123 130 -123 134 0 4 34 59 75 122 129 195 151 254 116 309 -45 74 -201 103
-346 66z"/>
<path d="M13475 12508 c-217 -453 -277 -572 -433 -861 -260 -481 -336 -593
-587 -869 -300 -329 -733 -663 -1089 -840 -47 -23 -86 -45 -86 -48 0 -3 4 -11
8 -18 15 -23 286 80 529 202 348 174 656 398 944 685 452 452 651 769 764
1221 49 196 74 446 61 593 -12 118 -28 108 -111 -65z"/>
<path d="M9855 10447 c-158 -59 -333 -227 -460 -442 -59 -101 -91 -173 -128
-290 -41 -131 -40 -135 18 -167 60 -33 232 -90 330 -109 109 -22 411 -18 500
5 159 42 273 115 315 201 45 93 1 142 -226 251 -142 67 -154 75 -149 96 75
324 80 356 62 408 -24 71 -142 91 -262 47z"/>
</g>
</svg>
